<svg width="109" height="118" viewBox="0 0 109 118" fill="none" xmlns="http://www.w3.org/2000/svg">
<path d="M90.9972 32.5591C91.6628 41.8723 91.6502 51.1506 92.6241 60.4086C92.8402 62.3942 89.9365 62.9998 89.7315 60.997C88.7575 51.739 88.7921 42.4261 88.1126 33.1533C87.9592 31.1625 90.8548 30.551 91.0053 32.5649L90.9972 32.5591Z" fill="black"/>
<path d="M91.3807 62.9695C88.8387 63.6595 86.5476 63.2686 84.0324 63.3217C80.5794 63.5606 77.1663 64.2422 73.8673 65.3518C67.0681 67.2609 60.0994 68.1898 53.1952 69.5942C46.2909 70.9986 39.6154 72.4166 32.8093 73.816C26.4317 75.1208 19.7526 74.2018 13.2968 74.3649C11.3946 74.406 11.6098 71.2804 13.4901 71.2361C20.5182 71.0694 27.6089 71.9573 34.5106 70.1851C41.0682 68.5055 47.7408 67.4639 54.3774 66.1441C60.7219 64.8911 67.1128 63.9745 73.3358 62.2427C76.2565 61.3042 79.2508 60.6473 82.2824 60.28C85.1669 60.0391 88.0014 60.6201 90.8518 59.875C92.6947 59.3873 93.2428 62.4705 91.4054 62.9495L91.3807 62.9695Z" fill="black"/>
<path d="M9.98591 72.0393C10.4732 67.5579 14.5198 67.4864 17.88 65.9986C19.772 65.1553 21.651 64.5927 23.5639 63.8653C26.3265 62.8298 28.7384 60.6705 31.1876 58.9546C36.0506 55.5225 39.9636 50.5848 44.9145 47.4054C49.7148 44.5446 54.2978 41.2902 58.6218 37.6717C60.0813 36.3901 62.0026 38.773 60.5376 40.0632C57.119 43.2152 53.4311 46.0213 49.5219 48.4451C44.3044 51.5584 40.5753 55.9852 35.6597 59.5182C32.4237 61.8527 28.8834 65.1285 25.2073 66.5904C23.2613 67.3696 13.1885 69.7943 12.9052 72.2272C12.6716 74.2291 9.72792 74.0236 9.96153 72.0217L9.98591 72.0393Z" fill="black"/>
<path d="M58.6049 37.6966C60.5916 35.8868 60.2121 31.4614 60.9837 28.9517C61.8404 26.1789 62.9529 23.5027 64.3047 20.9624C64.5242 20.6187 64.8631 20.3817 65.247 20.3037C65.6308 20.2256 66.0281 20.3128 66.3515 20.546C69.3182 22.6862 74.142 24.614 77.4352 26.1316C81.5672 28.0272 85.8575 29.5448 89.998 31.4087C91.7412 32.1741 90.7998 35.1543 89.0484 34.383C84.3758 32.2742 79.4378 30.6552 74.8512 28.356C71.6025 26.7317 67.5868 25.2859 64.6688 23.1809L66.7156 22.7646C64.9475 26.267 63.6776 30.0286 62.9474 33.9268C62.5106 36.1354 62.1672 38.5881 60.4876 40.1399C60.1852 40.3681 59.8133 40.4676 59.4454 40.4188C59.0774 40.37 58.7399 40.1765 58.4995 39.8764C58.2591 39.5763 58.1332 39.1914 58.1465 38.7975C58.1599 38.4036 58.3116 38.0293 58.5718 37.7484L58.6049 37.6966Z" fill="black"/>
<path d="M56.9982 38.7079C57.8036 37.4467 58.8917 34.181 58.1838 32.7239C57.374 31.0546 55.8865 33.4769 55.6603 34.5377C55.3577 36.1272 55.5021 37.7762 56.0755 39.279L53.9742 39.7064C53.8946 37.6931 52.1973 33.8439 49.758 34.9866C49.46 35.1022 49.1961 35.2996 48.993 35.5587C48.79 35.8179 48.6552 36.1295 48.6021 36.4619C48.5581 37.9066 50.093 38.1431 51.0405 38.221C52.3611 38.3282 53.6948 38.1546 55.0233 38.3054C56.3517 38.4561 56.3143 40.8014 54.8526 40.6177C52.3781 40.3468 49.0986 41.2619 47.2641 38.929C46.9302 38.5116 46.6852 38.0224 46.5458 37.495C46.4063 36.9675 46.3759 36.4143 46.4565 35.8731C46.537 35.332 46.7267 34.8158 47.0125 34.3598C47.2984 33.9039 47.6736 33.519 48.1124 33.2316C52.3323 30.1558 55.983 35.7799 56.1449 39.8211C56.2011 40.9973 54.4441 41.2946 54.0491 40.2399C53.1315 37.8905 53.0666 35.2628 53.8669 32.8654C54.59 30.9895 56.6252 29.2525 58.6248 29.9883C62.0428 31.2174 60.2094 37.8067 58.8026 40.0096C58.6266 40.2361 58.3775 40.3846 58.1039 40.4262C57.8304 40.4678 57.5521 40.3994 57.3234 40.2345C57.0947 40.0695 56.9322 39.8199 56.8676 39.5343C56.8029 39.2487 56.8408 38.9478 56.9738 38.6904L56.9982 38.7079Z" fill="black"/>
<path d="M55.2043 39.8996C54.4025 44.8735 47.4172 47.2415 43.1958 47.3635C35.6388 47.5777 32.158 35.9055 24.6631 38.6252C23.3352 39.1058 22.3791 36.9776 23.7096 36.5115C27.7645 35.0327 30.6527 36.0689 33.8362 39.0595C36.3408 41.4214 38.5935 44.6239 42.1106 45.0285C44.86 45.3337 52.3911 43.208 52.9739 39.767C53.2251 38.2952 55.4364 38.4393 55.1877 39.9255L55.2043 39.8996Z" fill="black"/>
<path d="M53.0026 41.6555C49.5693 43.0906 44.0728 46.3433 40.8673 42.6807C39.2226 40.8129 39.328 37.7847 38.4248 35.5179C37.3122 32.4013 35.687 29.5198 33.6251 27.008C32.6254 25.9335 34.3184 24.4165 35.31 25.4852C37.6938 28.3409 39.5433 31.6537 40.7592 35.2461C41.818 38.1802 41.7804 42.2921 45.8108 41.8556C47.9571 41.5994 50.084 40.3324 52.0631 39.5014C53.3861 38.9542 54.3477 41.0738 53.0598 41.6589L53.0026 41.6555Z" fill="black"/>
<path d="M53.6858 42.8549C54.7184 45.9973 57.0156 48.3864 58.185 51.4635C58.7109 52.8524 56.7248 53.8803 56.1881 52.471C55.0269 49.3998 52.7241 47.0194 51.6915 43.8769C51.2312 42.4597 53.2417 41.4494 53.6858 42.8549V42.8549Z" fill="black"/>
<path d="M47.0843 48.6928C47.7372 51.6118 49.3351 54.2409 50.5402 56.9273C50.6024 57.0667 50.6382 57.2177 50.6456 57.3718C50.6529 57.5258 50.6316 57.6799 50.5829 57.8252C50.5342 57.9706 50.459 58.1043 50.3617 58.2187C50.2644 58.3331 50.1468 58.4261 50.0157 58.4923C49.8846 58.5584 49.7425 58.5965 49.5976 58.6043C49.4526 58.6121 49.3076 58.5894 49.1709 58.5377C49.0342 58.4859 48.9084 58.406 48.8007 58.3026C48.693 58.1992 48.6056 58.0742 48.5433 57.9348C47.2471 55.0565 45.6124 52.262 44.9067 49.1282C44.5886 47.6369 46.7471 47.2129 47.0762 48.6869L47.0843 48.6928Z" fill="black"/>
<path d="M40.553 53.9372C41.4025 56.4555 41.89 59.2804 43.4397 61.4457C44.2995 62.6464 42.6173 64.1837 41.763 62.9744C40.0705 60.6051 39.491 57.7012 38.5669 54.9651C38.0875 53.5593 40.1116 52.5462 40.5969 53.9058L40.553 53.9372Z" fill="black"/>
<path d="M93.4001 60.4765C96.2795 64.3708 94.8394 69.8052 90.1195 70.2617C80.489 71.2771 70.93 72.9503 61.5018 75.2709C56.9375 76.3948 52.3938 77.319 47.8414 78.3127C43.2889 79.3063 38.5613 79.3659 33.9638 80.5416C26.8601 82.3699 18.6976 83.6995 11.612 81.1118C11.4287 81.0449 11.2594 80.9404 11.1141 80.804C10.9687 80.6677 10.85 80.5022 10.7648 80.3172C10.6796 80.1321 10.6296 79.931 10.6175 79.7253C10.6054 79.5196 10.6315 79.3135 10.6944 79.1186C10.7573 78.9236 10.8557 78.7438 10.984 78.5893C11.1123 78.4348 11.2679 78.3087 11.4421 78.2181C11.6162 78.1275 11.8054 78.0743 11.9989 78.0615C12.1924 78.0486 12.3864 78.0764 12.5698 78.1433C18.7615 80.4017 25.9903 79.3071 32.2417 77.7725C39.0174 76.086 45.9401 75.4521 52.7747 73.8966C59.6093 72.341 66.8594 70.2649 73.9207 69.3397C77.3545 68.8893 80.6754 68.2439 84.086 67.6253C86.1896 67.25 94.6712 67.2612 91.1636 62.51C89.9936 60.9214 92.23 58.8879 93.4001 60.4765V60.4765Z" fill="black"/>
<path d="M10.0096 80.0686C9.15346 77.3563 9.77788 74.854 9.98515 72.0381C10.1534 70.027 13.0971 70.2325 12.9289 72.2437C12.7606 74.2548 12.047 76.655 12.6739 78.7224C13.3008 80.7898 10.5996 81.9706 10.0096 80.0686V80.0686Z" fill="black"/>
<path d="M57.48 49.6678C58.0443 49.5551 58.6277 49.669 59.1175 49.9874C59.6073 50.3057 59.9685 50.8059 60.1312 51.3911C60.1802 52.0541 60.0209 52.7157 59.6784 53.2723C59.3358 53.8289 58.8293 54.2491 58.2381 54.4671C57.6804 54.6977 57.0625 54.7029 56.5013 54.4818C55.9402 54.2607 55.4748 53.8287 55.1932 53.2674C55.0612 52.988 54.9847 52.6827 54.9686 52.3705C54.9525 52.0583 54.9971 51.7459 55.0996 51.4528C55.2021 51.1597 55.3603 50.8922 55.5643 50.667C55.7684 50.4418 56.014 50.2637 56.2857 50.1437C56.5517 50.0197 56.8523 50.0083 57.1259 50.1119C57.3996 50.2155 57.6257 50.4263 57.758 50.7012C57.8798 50.9832 57.8931 51.3046 57.7952 51.597C57.6972 51.8893 57.4957 52.1294 57.2336 52.2661C56.646 52.4984 57.1355 52.271 57.1186 52.3346C57.2339 51.8752 57.1517 52.2828 57.1738 52.2482C57.1958 52.2136 57.3363 52.3655 57.5335 52.2427C57.7306 52.1199 57.8038 51.8194 57.9269 51.7568C58.05 51.6941 58.0929 51.7756 58.1257 52.1147L57.9306 51.974C57.7762 51.8626 57.9306 51.974 57.9306 51.974C57.7882 52.003 57.6418 52.0018 57.4997 51.9707C57.3577 51.9395 57.2228 51.8789 57.1028 51.7923C56.9828 51.7057 56.88 51.5949 56.8003 51.4661C56.7206 51.3373 56.6655 51.1931 56.6383 51.0417C56.611 50.8903 56.6121 50.7346 56.6414 50.5837C56.6707 50.4327 56.7278 50.2894 56.8092 50.1618C56.8907 50.0343 56.995 49.925 57.1161 49.8403C57.2373 49.7556 57.373 49.6971 57.5154 49.6681L57.48 49.6678Z" fill="black"/>
<path d="M49.3263 55.7609C49.6119 55.6419 49.9197 55.5957 50.225 55.6259C50.5304 55.6561 50.8249 55.7619 51.085 55.9347C51.345 56.1076 51.5633 56.3428 51.7225 56.6214C51.8817 56.9001 51.9773 57.2144 52.0016 57.5394C52.0548 58.1755 51.8841 58.8099 51.5225 59.3198C51.1609 59.8298 50.6342 60.1791 50.0443 60.3C49.4543 60.4209 48.8432 60.3049 48.3291 59.9745C47.815 59.644 47.4345 59.1226 47.2613 58.5111C47.2097 58.2139 47.2213 57.9081 47.2954 57.6162C47.3694 57.3244 47.5039 57.0538 47.6891 56.8244C47.8743 56.595 48.1055 56.4125 48.3657 56.2905C48.6258 56.1684 48.9084 56.1097 49.1927 56.1188C50.6228 56.1662 50.4655 58.5133 49.0491 58.4632C49.4114 58.4722 49.2494 58.2796 49.4253 58.0785L49.3766 58.0433C49.3766 58.0433 49.6164 58.0396 49.6245 58.0455C49.6326 58.0513 49.8811 57.9782 49.7551 58.064C49.6291 58.1498 49.7206 57.9508 49.7569 57.8381L49.8065 57.7604C50.1349 57.9341 50.213 58.0536 50.0794 58.0582C49.9459 58.0628 49.79 58.1396 49.7435 58.1566C49.4446 58.2154 49.136 58.1456 48.8855 57.9625C48.635 57.7794 48.4632 57.4981 48.4079 57.1804C48.3526 56.8628 48.4182 56.5347 48.5905 56.2685C48.7627 56.0023 49.0274 55.8197 49.3263 55.7609V55.7609Z" fill="black"/>
<path d="M43.3837 60.6607C43.2206 60.6188 43.1329 60.6817 43.3024 60.6021C43.3837 60.5641 43.469 60.5366 43.5564 60.5204C43.8162 60.4576 44.0855 60.4541 44.3467 60.51C44.6558 60.5876 44.9386 60.7548 45.1638 60.993C45.3889 61.2311 45.5476 61.5309 45.6221 61.8591C45.7171 62.4658 45.6213 63.0889 45.3497 63.6319C45.078 64.175 44.6455 64.6078 44.1192 64.8634C43.6417 65.1181 43.1016 65.2092 42.5733 65.1242C42.045 65.0391 41.5546 64.7821 41.1694 64.3885C40.9599 64.1379 40.8316 63.8225 40.8033 63.4886C40.775 63.1547 40.8483 62.82 41.0123 62.5337C41.3639 62.0426 41.7888 61.6159 42.27 61.2706C42.4964 61.0997 42.7748 61.0252 43.0504 61.0618C43.3259 61.0984 43.5785 61.2434 43.7584 61.4682C43.9383 61.693 44.0324 61.9813 44.0221 62.2763C44.0118 62.5712 43.8979 62.8513 43.7028 63.0613L43.1404 63.5516L42.9099 63.7638C42.7616 63.9092 42.7727 63.892 42.943 63.712L42.9831 63.11C42.8877 63.0207 42.8178 62.9047 42.7814 62.7752C42.7814 62.7752 43.1849 62.7382 43.1193 62.7666C43.297 62.6929 43.2958 62.4902 43.43 62.4103C43.4462 62.4033 43.4601 62.3913 43.4699 62.376C43.4797 62.3606 43.485 62.3424 43.4851 62.3239L44.1191 62.7812C43.9955 62.8244 43.8697 62.86 43.7423 62.8879C43.3944 62.9791 43.0302 62.9729 42.6853 62.8699C42.4116 62.7664 42.1864 62.5538 42.0574 62.277C41.9284 62.0003 41.9056 61.6811 41.9939 61.3869C42.0929 61.0938 42.2952 60.8529 42.5581 60.7153C42.821 60.5777 43.1239 60.554 43.4029 60.6493L43.3837 60.6607Z" fill="black"/>
<path d="M88.0942 40.8244C80.3828 36.2703 72.059 33.0021 63.414 31.1342C61.5508 30.7239 62.5248 27.7671 64.3581 28.1684C73.2561 30.1239 81.8193 33.5181 89.7492 38.2327C91.4035 39.2116 89.7404 41.7975 88.0942 40.8244Z" fill="black"/>
<path d="M76.654 42.5142H70.8848L68 47.8282L70.8848 53.1427H76.654L79.5385 47.8282L76.654 42.5142Z" fill="#FFB784"/>
</svg>
