<svg width="52" height="65" viewBox="0 0 52 65" fill="none" xmlns="http://www.w3.org/2000/svg">
<path d="M51.2495 21.2375V21.1392C51.1513 20.8444 49.4808 13.0815 48.3998 10.1336C47.4172 7.38214 43.3883 6.59602 41.9144 6.39949V6.30123C41.9144 2.96023 39.2612 0.307076 35.9202 0.307076C33.8567 0.307076 31.9896 1.38799 30.9087 2.96023C30.5157 2.17411 29.9261 1.48625 29.2382 0.994931C28.059 0.110548 26.5851 -0.184246 25.1111 0.110548L24.4232 0.208811C22.9493 0.503606 21.6718 1.28972 20.8857 2.4689C20.7874 2.66543 20.6892 2.7637 20.5909 2.96023C19.4117 2.17411 17.9378 1.78105 16.5621 2.07584L15.8742 2.17411C13.8106 2.56717 12.2384 3.94287 11.5506 5.8099C10.3714 5.12205 8.89741 4.82726 7.5217 5.12205L6.63732 5.41685C6.14599 5.51511 5.75293 5.71164 5.35988 5.90817C1.82234 6.89082 0.250106 12.7867 0.151841 14.8503C-0.142953 19.3704 -0.241218 29.7865 2.11714 36.9598C2.90325 39.2199 4.08243 40.7922 5.5564 41.7748C5.75293 42.954 6.14599 45.7054 6.53905 48.3586C7.03038 51.9944 9.68352 63.4017 9.68352 63.5C9.78179 64.2861 10.3714 64.7774 11.1575 64.7774C11.2558 64.7774 11.2558 64.7774 11.354 64.7774C12.1401 64.6792 12.7297 63.9913 12.6315 63.1069C12.6315 63.0087 9.97832 51.6013 9.487 47.9655C9.29047 46.295 8.99567 44.5262 8.79914 43.1505C9.58526 43.347 10.4696 43.4453 11.2558 43.4453C12.4349 43.4453 13.5159 43.2488 14.302 43.0523C15.0881 42.8557 15.5794 42.0696 15.2846 41.2835C15.0881 40.4974 14.302 40.006 13.5159 40.3008C13.0245 40.3991 10.0766 41.1852 7.71823 39.8095C7.71823 39.8095 7.61996 39.8095 7.61996 39.7113C6.53905 39.0234 5.5564 37.9425 4.96681 36.1737C2.70672 29.1969 2.90325 18.6826 3.09978 15.2433C3.09978 15.1451 3.09978 15.1451 3.09978 15.0468L3.8859 18.6826C4.47549 21.2375 6.73558 23.0062 9.29047 23.0062C9.38873 23.0062 9.487 23.0062 9.58526 23.0062H9.68352L13.7124 22.8097C10.6662 25.6594 10.961 30.3761 10.961 30.5726C11.0592 31.3587 11.6488 31.9483 12.4349 31.9483H12.5332C13.3193 31.8501 13.9089 31.1622 13.9089 30.3761C13.9089 30.3761 13.7124 26.3472 16.169 24.5785C16.4638 24.3819 16.8569 24.1854 17.3482 23.8906C16.9551 24.9715 16.7586 26.249 16.8569 27.6247C16.9551 28.4108 17.5447 29.0004 18.3308 29.0004H18.4291C19.2152 28.9021 19.9031 28.2143 19.8048 27.4282C19.6083 24.5785 21.377 22.8097 22.2614 22.3184C25.0128 20.7461 28.4521 20.3531 30.1226 20.1566C32.9723 19.96 35.6254 20.7461 37.3942 22.5149C37.9838 23.1045 38.8682 23.1045 39.4578 22.5149C40.0473 21.9253 40.0473 21.0409 39.4578 20.4514C38.6716 19.6652 37.7873 19.0756 36.9029 18.5843C38.4751 18.8791 39.7525 19.0756 40.1456 19.0756C40.9317 19.1739 41.7178 18.5843 41.7178 17.6999C41.8161 16.9138 41.2265 16.1277 40.3421 16.1277C37.7873 15.9312 30.4174 14.4572 29.4347 10.8214C29.1399 9.64223 29.1399 8.75785 29.4347 8.36479C29.6313 8.06999 30.0243 8.16826 30.0243 8.16826C33.0705 8.46305 40.9317 9.34744 41.1283 9.34744C42.7988 9.4457 45.2554 10.2318 45.6484 11.2145C46.6311 13.8676 48.2033 20.9427 48.3998 21.7288C48.3998 22.1219 48.6946 25.1681 47.4172 26.9368C45.845 29.0987 43.1918 31.3587 40.6369 33.6188C38.6716 35.2893 36.9029 36.8616 35.4289 38.4338C33.8567 38.8269 30.4174 39.4165 28.3538 38.9251C24.718 38.0407 23.5389 35.5841 23.5389 35.3876C23.2441 34.6015 22.3597 34.3067 21.5736 34.6015C20.7874 34.8963 20.4927 35.7807 20.7874 36.5668C20.8857 36.7633 22.4579 40.4974 27.666 41.7748C28.4521 41.9713 29.3365 42.0696 30.3191 42.0696C31.2035 42.0696 32.0879 41.9713 32.9723 41.8731C32.5792 42.7575 32.3827 43.6418 32.3827 44.5262C32.6775 48.7516 35.822 63.0087 35.9202 63.5983C36.0185 64.3844 36.6081 64.8757 37.3942 64.8757C37.4925 64.8757 37.4925 64.8757 37.5907 64.8757C38.3768 64.7774 38.9664 63.9913 38.8682 63.2052C38.8682 63.1069 35.6254 48.5551 35.3306 44.428C35.1341 42.1679 39.0647 38.7286 42.504 35.7807C45.1571 33.4223 47.9085 31.0639 49.6773 28.7056C51.8391 25.7577 51.2495 21.434 51.2495 21.2375ZM35.822 3.25502C37.3942 3.25502 38.7699 4.53246 38.8682 6.1047C37.1977 5.90817 34.8393 5.61338 32.9723 5.41685C33.2671 4.1394 34.4463 3.25502 35.822 3.25502ZM16.169 5.12205L16.8569 5.02379C16.9551 5.02379 17.1516 5.02379 17.2499 5.02379C17.7412 5.02379 18.3308 5.22032 18.7239 5.51511C19.3135 5.90817 19.7065 6.49776 19.8048 7.18561L21.377 16.4225C21.5736 17.7982 20.6892 19.1739 19.2152 19.3704L18.5274 19.4687C17.1516 19.6652 15.7759 18.7809 15.5794 17.3069L14.0072 8.06999C13.8106 6.69429 14.7933 5.41684 16.169 5.12205ZM6.73558 17.8965L5.35988 11.411C5.06508 10.0353 5.94946 8.65958 7.32517 8.36479L8.01303 8.16826C8.20955 8.16826 8.40608 8.06999 8.60261 8.06999C9.09394 8.06999 9.58526 8.16826 9.97832 8.46305C10.5679 8.85611 10.961 9.4457 11.1575 10.1336L12.5332 16.619C12.6315 17.3069 12.5332 17.9947 12.1401 18.5843C11.7471 19.1739 11.1575 19.567 10.4696 19.7635L9.78179 19.96C8.40608 20.1566 7.03038 19.2722 6.73558 17.8965ZM29.9261 15.9312C29.533 16.619 28.8452 17.2086 28.059 17.4051L27.3712 17.5034C26.6833 17.6017 25.9955 17.5034 25.4059 17.1104C24.8163 16.7173 24.4232 16.1277 24.325 15.4399L22.6545 6.20296C22.5562 5.51511 22.6545 4.82726 23.0475 4.23767C23.4406 3.64808 24.0302 3.25502 24.718 3.15675L25.4059 3.05849C26.0937 2.96023 26.7816 3.05849 27.3712 3.45155C27.9608 3.84461 28.3538 4.4342 28.4521 5.12205L28.5504 5.41685C27.9608 5.61338 27.4694 6.00643 27.0764 6.49776C26.3885 7.28388 25.7007 8.85611 26.4868 11.6075C27.0764 13.4746 28.3538 14.8503 29.9261 15.9312Z" fill="black"/>
<path d="M24.654 50H18.8848L16 54.9998L18.8848 60H24.654L27.5385 54.9998L24.654 50Z" fill="#FFB784"/>
</svg>
