<svg width="24" height="24" viewBox="0 0 24 24" fill="none" xmlns="http://www.w3.org/2000/svg">
<path d="M17.2456 0H6.57303C2.94866 0 0 2.94676 0 6.56861V17.2338C0 20.8558 2.94866 23.8024 6.57303 23.8024H17.2456C20.8703 23.8024 23.8189 20.8557 23.8189 17.2338V6.56861C23.8191 2.94676 20.8703 0 17.2456 0ZM21.7058 17.2338C21.7058 19.6913 19.705 21.6906 17.2458 21.6906H6.57303C4.11395 21.6907 2.11333 19.6913 2.11333 17.2338V6.56861C2.11333 4.11124 4.11395 2.11187 6.57303 2.11187H17.2456C19.7049 2.11187 21.7056 4.11124 21.7056 6.56861V17.2338H21.7058Z" fill="black" fill-opacity="0.5"/>
<path d="M11.9095 5.76807C8.52522 5.76807 5.77197 8.5194 5.77197 11.9013C5.77197 15.2831 8.52522 18.0343 11.9095 18.0343C15.2938 18.0343 18.047 15.2831 18.047 11.9013C18.047 8.5194 15.2938 5.76807 11.9095 5.76807ZM11.9095 15.9223C9.69065 15.9223 7.8853 14.1185 7.8853 11.9012C7.8853 9.68375 9.69051 7.87979 11.9095 7.87979C14.1285 7.87979 15.9337 9.68375 15.9337 11.9012C15.9337 14.1185 14.1284 15.9223 11.9095 15.9223Z" fill="black" fill-opacity="0.5"/>
<path d="M18.3051 3.97754C17.898 3.97754 17.498 4.14226 17.2104 4.43089C16.9215 4.7181 16.7554 5.11795 16.7554 5.52624C16.7554 5.93327 16.9216 6.33297 17.2104 6.6216C17.4979 6.90881 17.898 7.07494 18.3051 7.07494C18.7137 7.07494 19.1124 6.90881 19.4013 6.6216C19.6901 6.33297 19.8549 5.93313 19.8549 5.52624C19.8549 5.11795 19.6901 4.7181 19.4013 4.43089C19.1139 4.14226 18.7137 3.97754 18.3051 3.97754Z" fill="black" fill-opacity="0.5"/>
</svg>
