<svg width="89" height="89" viewBox="0 0 89 89" fill="none" xmlns="http://www.w3.org/2000/svg">
<path d="M11.1947 48.8366C11.2343 57.146 11.3564 65.4521 11.561 73.7549C11.6798 78.7049 9.90774 85.5359 15.6101 87.3179C20.9858 88.991 27.3911 88.793 32.9648 88.7336C38.3009 88.6742 43.736 88.2089 48.5771 85.7636C50.2799 84.9122 48.7751 82.3481 47.0723 83.1995C42.5183 85.4864 37.2614 85.7339 32.2223 85.7438C27.9653 85.7438 21.758 86.3477 17.7782 84.7538C12.947 82.853 14.4617 72.5471 14.3726 67.9733C14.2472 61.5779 14.168 55.1858 14.135 48.797C14.135 48.4032 13.9786 48.0255 13.7001 47.747C13.4216 47.4685 13.0439 47.312 12.65 47.312C12.2562 47.312 11.8785 47.4685 11.6 47.747C11.3215 48.0255 11.165 48.4032 11.165 48.797L11.1947 48.8366Z" fill="black"/>
<path d="M49.6462 84.3479C50.26 71.9399 50.4943 59.5253 50.3491 47.1041C50.3491 46.7103 50.1927 46.3326 49.9142 46.0541C49.6357 45.7756 49.258 45.6191 48.8641 45.6191C48.4703 45.6191 48.0926 45.7756 47.8141 46.0541C47.5356 46.3326 47.3792 46.7103 47.3792 47.1041C47.5178 59.5253 47.2834 71.9399 46.6762 84.3479C46.5772 86.2586 49.5472 86.2487 49.6462 84.3479Z" fill="black"/>
<path d="M23.0054 29.5911C17.6791 29.8584 -3.78405 32.5512 0.581848 42.1542C5.11605 52.1334 24.1042 49.3812 32.4103 49.0842C39.2809 48.8664 61.3876 50.2821 61.2292 38.8278C61.1005 29.502 46.6069 28.9278 40.1026 29.1555C38.1919 29.2248 38.182 32.1948 40.1026 32.1255C45.1417 31.9374 55.9426 32.0067 58.091 37.8378C61.2293 46.53 35.5982 46.035 31.4699 46.1142C23.6093 46.332 13.0954 47.7675 6.05655 43.5204C0.611548 40.2336 5.20515 36.8874 9.22455 35.2539C13.6323 33.5763 18.291 32.6526 23.0054 32.5215C24.9061 32.4225 24.916 29.4525 23.0054 29.5515V29.5911Z" fill="black"/>
<path d="M22.1837 33.9274C19.5701 34.1551 7.84848 34.9174 10.3037 40.2832C11.2937 42.4811 15.0062 42.6691 17.0456 42.9067C22.2574 43.4017 27.4925 43.6099 32.7272 43.5304C37.8653 43.5304 47.1218 44.8075 50.6165 39.8476C54.9032 33.7789 42.9638 33.8581 40.0631 33.7393C38.1524 33.6601 38.1524 36.6301 40.0631 36.7093C41.0531 36.7093 47.9831 36.6301 47.9831 38.3824C47.9831 39.5011 44.0924 40.0258 43.6865 40.0951C39.38 40.798 34.8854 40.5902 30.5294 40.5506C26.0268 40.6037 21.5248 40.3987 17.0456 39.9367C14.8874 39.6595 12.2639 38.9468 15.6299 37.8973C17.7606 37.3399 19.944 37.0081 22.1441 36.9074C24.035 36.7391 24.0548 33.769 22.1441 33.9373L22.1837 33.9274Z" fill="black"/>
<path d="M23.9359 39.8674C23.468 36.6417 23.77 33.3511 24.817 30.2644C25.807 27.235 28.1929 22.0474 31.2322 20.5921C38.6374 17.0578 38.7463 36.7885 38.479 40.9168C38.3602 42.8176 41.3302 42.8176 41.449 40.9168C41.8878 34.6871 41.2174 28.4289 39.469 22.4335C38.479 19.4635 36.2317 16.7509 32.8261 16.9984C28.579 17.3152 25.6783 21.7207 23.8369 25.0966C21.3108 29.5818 20.2906 34.7592 20.9263 39.8674C21.1639 41.7385 24.1438 41.7583 23.8963 39.8674H23.9359Z" fill="black"/>
<path d="M28.6683 20.0179C26.9335 18.3141 25.7065 16.1616 25.1241 13.8007C24.8172 12.5335 24.0747 6.37575 26.2725 6.02925C27.5496 5.83125 29.4405 17.3449 29.6583 18.6616C29.9652 20.5426 32.8263 19.7506 32.5194 17.8795C31.8066 13.5334 31.2324 7.64295 28.9752 3.79185C27.7971 1.81185 26.0844 2.19795 24.5004 3.63345C19.1445 8.49435 22.2432 17.731 26.5794 22.1167C26.8641 22.3594 27.2298 22.4856 27.6035 22.4703C27.9773 22.455 28.3314 22.2993 28.5953 22.0341C28.8591 21.769 29.0132 21.4141 29.0268 21.0404C29.0403 20.6666 28.9123 20.3015 28.6683 20.0179Z" fill="black"/>
<path d="M37.1128 19.3842C37.6346 16.8921 38.4557 14.4721 39.5581 12.177C40.5228 10.2309 41.6909 8.39244 43.0429 6.69241C44.0329 6.05881 44.1121 5.70241 43.33 5.70241C42.4192 5.39551 42.4687 5.88061 43.4785 7.16761C43.7137 7.97206 43.7477 8.82194 43.5775 9.64261C43.295 11.1155 42.7046 12.5122 41.845 13.7412C40.3303 16.3152 38.7859 18.8793 37.2613 21.4434C37.0618 21.7834 37.0055 22.1888 37.1048 22.5703C37.2041 22.9519 37.451 23.2783 37.791 23.4779C38.131 23.6774 38.5364 23.7337 38.9179 23.6344C39.2994 23.535 39.6259 23.2882 39.8254 22.9482C42.1123 19.107 45.8446 14.751 46.5376 10.2465C46.8445 8.20711 46.5376 4.21741 44.4289 3.10861C42.1321 1.90081 40.3996 5.16781 39.3304 6.70231C36.8764 10.2976 35.1355 14.3306 34.2022 18.5823C33.7765 20.4435 36.6376 21.2355 37.0732 19.3644L37.1128 19.3842Z" fill="black"/>
<path d="M30.8065 26.4428C31.0838 26.4167 31.3413 26.288 31.5288 26.082C31.7162 25.8761 31.8201 25.6076 31.8201 25.3291C31.8201 25.0506 31.7162 24.7821 31.5288 24.5761C31.3413 24.3702 31.0838 24.2415 30.8065 24.2153C30.5293 24.2415 30.2717 24.3702 30.0843 24.5761C29.8968 24.7821 29.793 25.0506 29.793 25.3291C29.793 25.6076 29.8968 25.8761 30.0843 26.082C30.2717 26.288 30.5293 26.4167 30.8065 26.4428Z" fill="black"/>
<path d="M34.5189 26.5617C34.7962 26.5356 35.0537 26.4069 35.2412 26.2009C35.4286 25.995 35.5325 25.7265 35.5325 25.448C35.5325 25.1695 35.4286 24.901 35.2412 24.695C35.0537 24.489 34.7962 24.3604 34.5189 24.3342C34.2417 24.3604 33.9841 24.489 33.7967 24.695C33.6093 24.901 33.5054 25.1695 33.5054 25.448C33.5054 25.7265 33.6093 25.995 33.7967 26.2009C33.9841 26.4069 34.2417 26.5356 34.5189 26.5617Z" fill="black"/>
<path d="M31.9152 31.3434C34.4001 31.3434 34.41 27.4824 31.9152 27.4824C29.4204 27.4824 29.4303 31.3434 31.9152 31.3434Z" fill="black"/>
<path d="M31.2323 29.2151C31.028 30.3818 30.8827 31.5581 30.7967 32.7395C30.7373 33.7295 32.2223 33.7295 32.2817 32.7395C32.3411 31.7495 32.4797 30.6506 32.6579 29.6012C32.8361 28.5518 31.3907 28.2647 31.2323 29.2151Z" fill="black"/>
<path d="M30.0146 33.7195C31.46 34.2046 33.1529 33.9175 34.6676 34.1155C35.6081 34.2343 35.5982 32.7493 34.6676 32.6305C33.9424 32.5302 33.2117 32.474 32.4797 32.4622C31.7833 32.5033 31.0849 32.4331 30.4106 32.2543C29.4998 31.9573 29.1137 33.3829 30.0146 33.6898V33.7195Z" fill="black"/>
<path d="M12.2836 56.5489C23.6092 60.2614 37.8256 58.7071 49.3096 56.5489C51.1807 56.1925 50.3887 53.3314 48.5176 53.6779C37.6276 55.7272 23.7676 57.2023 13.0657 53.6779C11.254 53.0838 10.4719 55.9549 12.2836 56.5489Z" fill="black"/>
<path d="M63.3181 11.1178C63.7022 8.60118 64.3187 6.1255 65.1595 3.72255L63.3181 4.20765C64.7338 5.80155 66.2881 8.99925 68.674 9.05865C70.3075 9.05865 71.9113 7.07865 73.5448 7.17765C75.01 7.22715 74.4655 7.55385 73.7329 8.92005C73.0055 10.0135 72.212 11.0616 71.3569 12.0584C71.2094 12.3145 71.1693 12.6187 71.2453 12.9044C71.3214 13.1901 71.5074 13.434 71.7628 13.5829C73.1488 14.2264 75.1684 14.8007 76.297 15.86C78.3661 17.7905 76.4158 17.038 74.8318 16.9687C73.4062 16.9093 70.9411 16.1669 69.5749 16.6817C68.2087 17.1965 67.9414 18.3052 67.4761 19.6021C67.3177 20.0476 66.199 24.0967 65.8327 24.0274C64.912 23.8492 64.0309 18.3944 63.8527 17.5232C63.7835 17.292 63.6426 17.0888 63.4505 16.9429C63.2583 16.797 63.0247 16.7159 62.7835 16.7113C61.9519 16.6519 57.4474 16.642 57.5266 15.1669C57.5266 14.2957 62.1103 12.1969 62.8726 11.7811C64.1497 11.1277 63.0211 9.20715 61.744 9.86055C58.6849 11.4347 50.1907 15.9491 57.19 18.0182C58.18 18.3053 60.6451 18.2755 61.4371 18.8497C62.9023 19.909 62.7736 22.8097 63.526 24.4333C64.2784 26.0569 65.2486 27.4033 67.0207 26.1559C69.1492 24.661 68.4661 19.9882 70.3669 18.8992C72.0796 17.9092 76.2376 19.6912 78.3562 19.1071C84.4744 17.4043 74.5744 12.4543 72.8617 11.6623L73.2577 13.177C74.3269 11.6722 80.3362 5.25705 75.6535 4.48485C73.6735 4.13835 71.6143 5.80155 69.7927 6.24705C67.3375 6.86085 66.5059 4.47495 64.8427 2.63355C64.7029 2.50006 64.5311 2.40473 64.3438 2.35669C64.1566 2.30865 63.9601 2.30952 63.7733 2.3592C63.5865 2.40889 63.4155 2.50573 63.2769 2.64045C63.1383 2.77516 63.0365 2.94323 62.9815 3.12855C62.1418 5.53186 61.5254 8.00742 61.1401 10.5239C60.9322 11.9297 63.0706 12.5335 63.3181 11.1178Z" fill="black"/>
<path d="M69.2579 19.0675C75.288 29.2192 80.7064 39.722 85.484 50.5198C86.0483 51.8365 87.9689 50.698 87.464 49.3912C82.6805 38.5995 77.2623 28.1003 71.2379 17.9488C71.1645 17.8188 71.0661 17.7046 70.9485 17.6126C70.8309 17.5206 70.6963 17.4526 70.5524 17.4126C70.4086 17.3726 70.2582 17.3614 70.11 17.3795C69.9618 17.3976 69.8186 17.4447 69.6886 17.5182C69.5586 17.5916 69.4443 17.69 69.3523 17.8076C69.2603 17.9252 69.1924 18.0598 69.1524 18.2037C69.1124 18.3475 69.1011 18.4979 69.1192 18.6461C69.1373 18.7943 69.1845 18.9375 69.2579 19.0675Z" fill="black"/>
<path d="M50.6463 3.54434C52.0159 3.98974 53.2678 4.73749 54.3093 5.73224C55.2993 6.72224 56.913 5.16794 55.8834 4.15814C54.5658 2.89645 52.9778 1.95181 51.2403 1.39604C50.9651 1.34523 50.6809 1.39939 50.4437 1.54786C50.2064 1.69632 50.0335 1.92829 49.9589 2.19801C49.8843 2.46773 49.9136 2.75561 50.0408 3.00484C50.1681 3.25408 50.3841 3.44657 50.6463 3.54434Z" fill="black"/>
<path d="M54.2102 1.07911C52.8473 2.45996 51.7914 4.11301 51.1115 5.93011C50.5967 7.26661 52.7549 7.85071 53.2598 6.52411C53.8231 5.0753 54.683 3.7602 55.7843 2.66311C56.7743 1.67311 55.2101 0.0594127 54.2102 1.07911Z" fill="black"/>
<path d="M69.9513 2.97C70.3452 2.97 70.7229 2.81354 71.0014 2.53505C71.2799 2.25656 71.4363 1.87885 71.4363 1.485C71.4363 1.09115 71.2799 0.713438 71.0014 0.434946C70.7229 0.156455 70.3452 8.2997e-09 69.9513 0C69.5575 8.2997e-09 69.1798 0.156455 68.9013 0.434946C68.6228 0.713438 68.4663 1.09115 68.4663 1.485C68.4663 1.87885 68.6228 2.25656 68.9013 2.53505C69.1798 2.81354 69.5575 2.97 69.9513 2.97Z" fill="black"/>
<path d="M55.2593 22.6809C53.1902 22.572 53.1011 25.74 53.8634 27.0072C54.102 27.3451 54.4098 27.6282 54.7664 27.8378C55.1229 28.0473 55.52 28.1785 55.9313 28.2225C56.3425 28.2665 56.7584 28.2224 57.1513 28.0931C57.5441 27.9638 57.9049 27.7522 58.2095 27.4725C59.4866 26.3736 60.1895 23.9184 58.8926 22.5225C57.4967 21.0177 55.3682 21.8493 54.1802 23.1165C53.1902 24.1659 54.7742 25.74 55.7543 24.6906C56.0414 24.3936 56.675 23.7006 57.1601 23.9778C57.6452 24.255 57.1601 25.1559 56.9918 25.4628C56.8235 25.7697 56.279 26.1756 55.883 25.9083C55.685 25.7697 55.685 25.5222 55.6652 25.3044C55.6751 25.1329 55.6751 24.9611 55.6652 24.7896C55.586 24.3045 56.1206 24.9084 55.2395 24.8589C56.675 24.9381 56.6651 22.7106 55.2395 22.6314L55.2593 22.6809Z" fill="black"/>
<path d="M82.7716 10.5833L87.7215 9.25675C87.9838 9.15897 88.1998 8.96648 88.327 8.71725C88.4543 8.46801 88.4835 8.18014 88.4089 7.91042C88.3344 7.6407 88.1614 7.40872 87.9242 7.26026C87.687 7.1118 87.4027 7.05763 87.1276 7.10845L82.1776 8.43505C81.9154 8.53282 81.6993 8.72531 81.5721 8.97455C81.4448 9.22378 81.4156 9.51166 81.4902 9.78138C81.5647 10.0511 81.7377 10.2831 81.9749 10.4315C82.2121 10.58 82.4964 10.6342 82.7716 10.5833Z" fill="black"/>
<path d="M82.2469 5.64304C82.6503 4.95453 83.2141 4.37373 83.8903 3.95014C85.0981 3.18784 83.9794 1.25734 82.7617 2.01964C81.7596 2.64994 80.9242 3.5125 80.3263 4.53424C80.2529 4.66035 80.205 4.79969 80.1854 4.94431C80.1658 5.08893 80.1748 5.23599 80.2121 5.3771C80.2493 5.51822 80.314 5.65061 80.4024 5.76674C80.4908 5.88286 80.6012 5.98043 80.7273 6.05389C80.8534 6.12734 80.9927 6.17524 81.1373 6.19484C81.282 6.21445 81.429 6.20537 81.5701 6.16814C81.7112 6.13091 81.8436 6.06625 81.9598 5.97785C82.0759 5.88945 82.1735 5.77905 82.2469 5.65294V5.64304Z" fill="black"/>
<path d="M33.654 67H27.8848L25 71.9998L27.8848 77H33.654L36.5385 71.9998L33.654 67Z" fill="#FFB784"/>
</svg>
