<?xml version="1.0" standalone="no"?>
<!DOCTYPE svg PUBLIC "-//W3C//DTD SVG 20010904//EN"
 "http://www.w3.org/TR/2001/REC-SVG-20010904/DTD/svg10.dtd">
<svg version="1.0" xmlns="http://www.w3.org/2000/svg"
 width="808.000000pt" height="808.000000pt" viewBox="0 0 808.000000 808.000000"
 preserveAspectRatio="xMidYMid meet">
<metadata>
Created by potrace 1.11, written by Peter Selinger 2001-2013
</metadata>
<g transform="translate(0.000000,808.000000) scale(0.100000,-0.100000)"
fill="#000000" stroke="none">
<path d="M3675 7931 c-49 -5 -108 -13 -130 -19 -22 -5 -80 -13 -129 -17 -49
-3 -105 -12 -125 -20 -20 -7 -65 -16 -100 -20 -36 -3 -77 -13 -92 -21 -16 -8
-41 -14 -56 -14 -15 -1 -46 -8 -68 -16 -22 -9 -62 -20 -89 -26 -27 -5 -58 -15
-70 -23 -12 -7 -39 -16 -60 -20 -21 -3 -48 -13 -60 -20 -12 -7 -38 -17 -58
-20 -21 -4 -42 -13 -49 -21 -6 -8 -19 -14 -28 -14 -9 0 -34 -9 -55 -19 -21
-11 -51 -23 -66 -26 -16 -3 -34 -13 -41 -21 -6 -8 -19 -14 -29 -14 -9 0 -28
-8 -41 -18 -13 -11 -36 -22 -51 -25 -15 -4 -33 -14 -42 -22 -8 -8 -21 -15 -29
-15 -8 0 -25 -8 -38 -19 -13 -10 -33 -21 -44 -25 -11 -3 -43 -21 -71 -39 -28
-18 -57 -36 -65 -39 -25 -10 -274 -179 -277 -189 -2 -5 -8 -9 -14 -9 -11 0
-143 -103 -247 -195 -57 -49 -346 -338 -386 -385 -17 -19 -60 -73 -97 -120
-37 -47 -74 -92 -83 -101 -8 -9 -15 -21 -15 -27 0 -6 -6 -15 -13 -19 -7 -4
-19 -18 -27 -29 -88 -129 -119 -176 -125 -194 -3 -11 -10 -20 -16 -20 -5 0
-16 -15 -24 -32 -8 -18 -26 -51 -39 -73 -13 -22 -40 -71 -60 -110 -20 -38 -40
-77 -45 -85 -5 -8 -14 -26 -20 -40 -6 -14 -15 -32 -19 -40 -30 -54 -50 -99
-56 -127 -4 -17 -13 -37 -21 -43 -7 -6 -16 -27 -20 -47 -3 -20 -13 -42 -21
-50 -8 -8 -14 -24 -14 -36 0 -12 -9 -39 -20 -60 -11 -20 -20 -47 -20 -59 0
-13 -9 -41 -19 -63 -10 -22 -21 -59 -25 -83 -3 -24 -13 -53 -20 -65 -8 -12
-17 -45 -20 -74 -4 -28 -13 -67 -20 -85 -7 -18 -16 -59 -20 -92 -4 -32 -13
-80 -20 -105 -8 -25 -19 -95 -25 -156 -6 -60 -15 -132 -20 -160 -16 -85 -13
-664 4 -748 8 -40 18 -120 24 -178 5 -59 14 -116 20 -126 5 -11 13 -51 17 -89
4 -38 13 -81 20 -95 7 -14 16 -50 20 -80 4 -30 13 -66 20 -80 7 -15 16 -46 20
-70 4 -24 15 -60 26 -79 10 -19 18 -45 18 -57 0 -13 9 -40 20 -60 11 -21 20
-46 20 -55 0 -10 9 -35 20 -55 11 -21 20 -45 20 -54 0 -9 6 -22 14 -28 8 -7
18 -27 21 -44 4 -18 16 -46 26 -63 10 -17 19 -38 19 -46 0 -9 6 -21 14 -27 8
-7 18 -25 21 -41 3 -16 15 -38 26 -51 10 -12 19 -30 19 -40 0 -10 5 -21 11
-25 6 -3 18 -21 26 -38 8 -17 25 -49 39 -71 13 -22 30 -54 38 -71 8 -17 22
-36 30 -44 9 -7 16 -16 16 -21 0 -4 15 -29 33 -54 17 -26 37 -54 42 -63 25
-42 50 -78 62 -92 8 -8 34 -42 59 -75 25 -33 62 -80 82 -104 20 -24 46 -55 57
-68 46 -56 186 -203 265 -278 46 -44 95 -90 108 -102 12 -13 25 -23 27 -23 2
0 15 -10 27 -23 52 -50 215 -177 227 -177 6 0 11 -4 11 -9 0 -8 29 -29 92 -67
10 -6 26 -18 36 -27 10 -10 23 -17 29 -17 6 0 17 -7 24 -16 7 -9 22 -20 34
-25 11 -5 40 -23 65 -39 25 -16 59 -36 75 -44 17 -9 38 -20 48 -26 9 -5 25
-15 35 -20 9 -6 33 -18 52 -26 19 -9 37 -20 40 -24 3 -4 22 -13 43 -19 20 -7
37 -16 37 -21 0 -5 15 -12 32 -16 18 -3 44 -15 57 -25 13 -11 32 -19 42 -19
10 0 33 -9 51 -20 18 -11 43 -20 54 -20 12 0 27 -7 34 -15 7 -8 28 -17 49 -21
20 -4 52 -15 71 -25 19 -11 45 -19 57 -19 13 0 40 -9 60 -20 21 -11 50 -20 64
-20 15 0 46 -9 70 -20 24 -11 60 -20 79 -20 19 0 49 -7 65 -16 17 -8 65 -19
107 -24 43 -5 87 -14 98 -20 12 -6 72 -15 133 -20 62 -5 130 -15 152 -22 57
-19 764 -19 817 0 20 7 85 17 145 22 59 5 128 16 152 24 24 9 61 16 82 16 22
0 65 9 96 19 32 11 77 22 99 25 23 3 54 13 70 21 16 8 40 15 54 15 14 0 43 9
65 20 22 11 49 20 60 20 11 0 38 9 60 20 22 11 47 19 55 20 8 0 32 9 53 20 20
11 44 20 52 20 9 0 33 8 53 19 34 17 90 43 152 70 14 6 32 15 40 20 8 5 26 14
40 20 14 6 32 15 40 20 8 5 26 14 40 20 14 6 43 22 65 36 22 13 52 29 68 36
15 6 27 14 27 18 0 4 15 15 33 24 17 10 46 26 62 37 17 11 44 27 60 36 17 9
34 23 38 30 4 8 12 14 18 14 8 0 90 56 154 105 87 67 144 113 157 125 9 8 44
40 79 70 81 69 267 255 339 339 30 35 62 71 71 80 30 31 199 257 226 304 6 11
15 22 21 26 5 3 17 20 26 36 9 17 25 44 36 60 11 17 27 44 35 62 8 17 19 34
25 38 6 4 17 21 25 38 8 18 19 39 24 47 5 8 12 22 16 30 3 8 17 33 30 55 14
22 30 51 36 65 6 14 19 43 29 65 10 22 25 56 33 75 9 19 27 61 41 92 15 31 26
62 26 67 0 6 9 28 20 48 11 21 20 47 20 58 0 11 6 30 14 41 8 11 17 38 21 60
4 21 13 48 20 60 8 12 18 43 23 70 6 27 17 67 26 89 8 22 15 55 16 73 0 18 7
46 15 62 8 16 19 64 24 107 4 44 14 89 20 101 6 11 14 63 17 114 3 51 13 129
22 173 20 100 23 661 3 735 -6 25 -16 96 -21 158 -5 62 -15 134 -23 160 -9 26
-18 75 -21 110 -3 34 -13 76 -21 92 -8 16 -15 44 -15 62 -1 18 -8 51 -16 73
-9 22 -20 62 -26 89 -5 27 -15 58 -23 70 -7 12 -16 39 -20 60 -4 22 -13 49
-21 60 -8 11 -14 30 -14 41 0 11 -8 36 -19 55 -10 19 -21 49 -25 67 -4 17 -14
37 -22 44 -8 6 -14 18 -14 27 0 8 -9 33 -19 56 -23 49 -118 244 -131 269 -22
39 -56 97 -95 162 -13 22 -28 49 -33 60 -6 12 -17 27 -26 34 -9 7 -16 19 -16
27 0 7 -8 20 -17 30 -10 10 -22 25 -28 34 -21 36 -145 204 -186 254 -13 16
-46 53 -109 127 -71 81 -258 268 -339 339 -35 30 -74 64 -87 75 -56 49 -108
91 -132 107 -15 10 -54 38 -87 63 -33 25 -68 48 -77 51 -10 4 -18 10 -18 15 0
4 -16 15 -35 24 -19 9 -39 23 -46 31 -6 8 -15 14 -20 14 -7 0 -60 32 -94 57
-20 15 -70 42 -143 79 -39 20 -74 40 -77 44 -3 5 -18 11 -34 15 -16 3 -35 13
-41 20 -7 8 -27 17 -46 21 -18 3 -38 12 -45 20 -6 8 -17 14 -23 14 -6 0 -33
11 -61 25 -27 13 -60 25 -71 25 -12 0 -27 7 -34 15 -7 8 -28 17 -49 21 -20 3
-45 12 -57 19 -12 8 -39 17 -60 21 -21 4 -48 13 -59 20 -11 7 -40 16 -65 20
-25 3 -55 12 -66 20 -12 7 -46 16 -75 20 -30 4 -66 13 -80 20 -14 7 -54 16
-90 19 -35 4 -81 13 -102 21 -20 8 -76 17 -125 20 -48 3 -112 13 -142 20 -64
17 -616 28 -765 15z m807 -162 c53 -10 117 -19 141 -19 24 0 73 -9 107 -20 34
-11 79 -20 99 -20 20 0 49 -7 65 -15 15 -8 53 -19 85 -24 31 -5 70 -16 86 -25
17 -9 41 -16 55 -16 14 0 43 -9 65 -20 22 -11 48 -19 58 -20 9 0 34 -9 54 -20
21 -11 45 -20 53 -20 8 0 35 -10 60 -21 25 -12 65 -31 90 -42 25 -11 62 -28
82 -38 20 -11 43 -19 51 -19 8 0 24 -9 37 -20 13 -11 31 -20 41 -20 10 0 21
-5 25 -11 3 -6 25 -19 48 -30 22 -10 55 -28 71 -39 17 -11 44 -27 61 -37 97
-55 133 -78 208 -130 26 -18 49 -33 52 -33 2 0 12 -7 22 -16 9 -8 67 -54 127
-102 107 -84 131 -105 238 -202 97 -88 177 -172 294 -309 13 -14 28 -33 35
-41 14 -15 96 -119 125 -159 10 -13 26 -32 36 -42 9 -11 17 -21 17 -23 0 -11
64 -106 71 -106 5 0 9 -6 9 -12 0 -7 17 -38 38 -68 20 -30 43 -66 50 -80 7
-14 23 -43 36 -65 13 -22 56 -105 95 -185 40 -80 78 -158 86 -173 8 -16 15
-34 15 -40 0 -7 8 -28 19 -47 10 -19 22 -51 26 -70 4 -19 14 -44 21 -55 8 -11
14 -29 14 -40 0 -11 9 -38 20 -60 11 -22 20 -51 20 -65 0 -14 9 -45 20 -69 11
-24 20 -54 20 -67 0 -13 9 -50 19 -81 11 -32 22 -84 25 -117 4 -32 11 -67 17
-78 6 -11 15 -63 20 -115 5 -53 16 -129 24 -169 12 -57 15 -147 15 -411 -1
-187 -5 -358 -11 -383 -5 -25 -14 -85 -20 -135 -5 -49 -15 -110 -20 -135 -6
-25 -15 -72 -21 -105 -5 -33 -18 -89 -29 -125 -11 -36 -19 -75 -19 -86 0 -12
-9 -41 -20 -65 -11 -24 -20 -55 -20 -69 0 -14 -9 -43 -20 -65 -11 -22 -20 -46
-20 -54 0 -17 -31 -100 -61 -167 -11 -23 -19 -46 -19 -52 0 -6 -7 -23 -15 -39
-8 -15 -46 -93 -86 -173 -39 -80 -82 -163 -95 -185 -13 -22 -30 -51 -36 -65
-7 -14 -29 -50 -49 -80 -19 -30 -38 -63 -42 -72 -3 -10 -11 -18 -17 -18 -5 0
-10 -5 -10 -11 0 -6 -11 -25 -25 -43 -14 -18 -25 -36 -25 -39 0 -4 -8 -15 -17
-26 -10 -10 -26 -29 -36 -42 -9 -13 -28 -38 -42 -55 -14 -18 -25 -34 -25 -37
0 -4 -10 -17 -22 -29 -13 -13 -48 -53 -78 -88 -134 -157 -232 -255 -404 -405
-38 -33 -77 -68 -88 -78 -10 -9 -21 -17 -24 -17 -4 0 -74 -53 -135 -102 -9 -7
-23 -17 -31 -23 -9 -5 -37 -25 -62 -42 -26 -18 -51 -33 -55 -33 -5 0 -15 -7
-22 -17 -8 -9 -29 -22 -46 -30 -18 -7 -33 -17 -33 -22 0 -5 -11 -12 -24 -15
-14 -3 -31 -12 -38 -19 -7 -7 -44 -28 -81 -46 -37 -19 -70 -38 -73 -42 -2 -4
-18 -10 -34 -14 -17 -4 -30 -10 -30 -15 0 -5 -17 -14 -37 -20 -21 -7 -45 -18
-53 -25 -8 -7 -29 -16 -47 -20 -17 -3 -37 -13 -44 -21 -6 -8 -19 -14 -28 -14
-9 0 -34 -9 -56 -20 -22 -11 -44 -20 -50 -20 -6 0 -27 -8 -48 -19 -20 -10 -53
-22 -73 -26 -20 -3 -46 -12 -58 -20 -12 -7 -41 -16 -66 -20 -25 -4 -54 -14
-65 -21 -11 -8 -32 -14 -47 -14 -15 0 -54 -9 -85 -19 -32 -11 -83 -23 -113
-26 -30 -4 -69 -13 -85 -20 -17 -6 -68 -15 -115 -19 -47 -4 -112 -15 -145 -23
-89 -24 -811 -24 -900 0 -33 8 -98 19 -145 23 -47 3 -99 12 -116 19 -17 7 -60
16 -95 20 -35 4 -75 13 -89 20 -14 7 -48 16 -75 20 -28 4 -62 14 -76 21 -15 7
-46 16 -69 20 -22 4 -58 15 -78 25 -20 11 -46 19 -57 19 -11 0 -30 6 -41 14
-11 8 -37 17 -57 21 -20 4 -41 13 -47 20 -6 8 -26 17 -43 21 -18 3 -43 12 -57
19 -26 14 -96 46 -140 64 -14 6 -32 15 -40 21 -8 5 -26 15 -40 21 -14 5 -43
21 -65 34 -22 14 -53 32 -70 41 -16 8 -48 26 -70 39 -22 13 -53 32 -70 41 -16
9 -35 23 -43 30 -7 8 -20 14 -28 14 -8 0 -14 4 -14 10 0 5 -14 17 -32 26 -17
9 -36 20 -42 25 -38 31 -130 99 -135 99 -3 0 -26 18 -51 40 -64 57 -68 60
-135 115 -71 59 -165 146 -209 194 -17 19 -47 50 -66 70 -20 20 -60 65 -89
101 -30 36 -60 69 -67 73 -8 4 -14 15 -14 22 0 8 -4 15 -9 15 -5 0 -38 39 -73
87 -35 48 -73 101 -85 118 -12 16 -27 40 -32 53 -6 12 -15 22 -20 22 -5 0 -13
10 -17 22 -3 11 -24 46 -45 77 -22 31 -39 61 -39 67 0 6 -9 19 -20 29 -11 10
-20 26 -20 36 0 10 -5 21 -11 25 -6 3 -17 21 -25 38 -8 17 -19 38 -24 46 -6 8
-14 26 -20 40 -5 14 -14 32 -19 40 -8 14 -20 38 -81 175 -10 22 -27 61 -39 86
-12 25 -21 54 -21 63 0 9 -9 33 -20 53 -11 21 -20 45 -20 54 0 9 -9 36 -20 60
-11 24 -20 55 -20 69 0 14 -7 35 -15 47 -8 11 -17 40 -21 64 -3 24 -14 70 -25
102 -10 31 -19 72 -19 91 0 18 -7 52 -15 76 -8 23 -19 88 -24 143 -6 56 -16
118 -23 137 -19 50 -19 820 0 870 7 19 17 82 23 139 5 57 14 112 20 122 5 10
14 52 19 94 5 41 16 88 25 105 8 16 15 44 15 62 0 18 9 53 20 77 11 24 20 53
20 65 0 11 9 41 20 65 11 24 20 51 20 60 0 9 8 32 19 51 10 19 21 51 25 71 4
21 13 42 21 49 8 7 15 21 15 32 0 10 9 36 19 56 11 20 31 64 46 97 15 33 31
67 36 75 5 8 14 26 19 40 6 14 14 32 20 40 5 8 17 29 25 45 8 17 26 48 40 70
13 22 28 50 34 62 6 12 25 44 43 70 18 27 38 56 43 65 6 9 25 37 43 62 17 26
32 49 32 52 0 5 75 102 105 137 8 9 15 21 15 27 0 5 9 14 20 20 11 6 20 17 20
25 0 8 6 18 14 22 7 4 37 37 67 73 67 81 272 287 360 361 81 68 83 70 139 119
25 22 48 40 51 40 4 0 31 19 62 43 60 45 67 51 142 99 28 18 55 36 60 40 19
15 80 53 105 66 14 7 43 23 65 36 22 13 101 54 175 91 74 36 151 75 170 85 19
9 49 21 67 24 17 4 37 14 44 22 6 8 21 14 32 14 11 0 38 8 61 19 57 25 133 51
183 61 24 5 55 16 70 23 16 8 50 17 77 21 27 3 55 11 62 17 7 6 46 15 86 20
40 5 90 15 113 23 22 8 77 17 122 21 46 3 95 11 110 17 79 32 791 30 955 -3z"/>
<path d="M4110 7094 c-27 -11 -40 -37 -40 -80 0 -51 11 -61 78 -70 71 -9 79
-21 64 -94 -7 -32 -15 -96 -17 -142 -3 -46 -7 -111 -10 -146 -6 -81 12 -102
85 -102 43 0 52 3 59 23 18 44 40 195 47 310 l6 117 68 0 c78 0 87 7 96 72 7
53 -11 78 -56 78 -16 0 -59 6 -97 14 -76 16 -260 28 -283 20z"/>
<path d="M3610 7076 c-19 -7 -73 -16 -120 -20 -54 -5 -101 -15 -130 -29 -43
-21 -45 -24 -48 -70 -2 -26 6 -84 17 -130 11 -45 22 -111 26 -147 3 -36 12
-83 20 -105 8 -22 14 -59 15 -82 0 -24 7 -48 16 -57 19 -19 59 -30 74 -21 6 4
50 10 98 15 79 7 174 29 212 49 9 5 16 25 18 49 3 34 -2 47 -23 68 -24 24 -30
25 -88 19 -34 -4 -82 -13 -106 -21 -24 -8 -45 -13 -46 -12 -7 9 -12 76 -7 85
4 5 41 19 82 30 l75 20 3 55 c4 80 -10 92 -102 83 -39 -4 -75 -7 -81 -8 -9 -2
-22 52 -13 54 2 0 41 4 86 8 75 7 87 12 114 39 36 35 34 62 -8 111 -29 34 -34
35 -84 17z"/>
<path d="M4895 6925 c-48 -47 -22 -135 39 -135 26 0 56 -23 56 -43 0 -7 -9
-25 -20 -42 -11 -16 -20 -39 -20 -50 0 -11 -9 -33 -20 -50 -11 -16 -20 -39
-20 -50 0 -11 -9 -33 -20 -50 -11 -16 -20 -39 -20 -51 0 -11 -7 -29 -15 -40
-8 -10 -15 -34 -15 -52 0 -29 5 -35 54 -59 53 -26 54 -26 79 -7 15 10 31 35
38 54 6 19 20 53 30 76 10 22 19 45 19 50 0 5 9 27 20 49 11 22 20 44 20 50 0
6 9 28 20 50 11 22 20 47 20 57 0 22 27 23 54 3 23 -17 79 -20 106 -5 48 26
44 118 -7 135 -16 6 -36 15 -44 22 -8 6 -28 15 -44 19 -17 4 -46 15 -65 26
-19 10 -44 18 -56 18 -12 0 -27 6 -33 14 -11 13 -91 36 -122 36 -5 0 -21 -11
-34 -25z"/>
<path d="M2610 6762 c-32 -26 -32 -78 -1 -140 13 -26 27 -54 31 -62 4 -8 11
-24 17 -35 11 -21 44 -94 62 -135 6 -14 15 -32 19 -40 31 -55 52 -101 52 -113
0 -22 34 -47 64 -47 15 0 44 9 64 19 20 11 48 24 62 30 14 6 32 15 40 20 8 5
45 23 83 41 65 31 67 32 67 69 0 24 -8 49 -22 66 -19 24 -26 27 -65 22 -23 -2
-50 -11 -59 -18 -14 -12 -56 -30 -105 -46 -12 -3 -20 5 -29 31 -6 20 -15 36
-20 36 -4 0 -11 15 -14 34 -4 19 -13 39 -21 46 -8 7 -15 17 -15 23 0 12 -40
101 -75 167 -22 42 -27 45 -68 48 -31 2 -50 -2 -67 -16z"/>
<path d="M5667 6572 c-16 -7 -28 -22 -69 -87 -7 -11 -21 -26 -30 -33 -10 -7
-18 -20 -18 -28 0 -8 -4 -14 -9 -14 -5 0 -18 -15 -30 -32 -11 -18 -26 -42 -33
-53 -7 -11 -21 -26 -30 -33 -10 -7 -18 -20 -18 -28 0 -8 -4 -14 -9 -14 -9 0
-35 -38 -77 -111 l-21 -37 31 -32 c17 -17 69 -60 116 -96 47 -35 97 -72 112
-84 34 -26 61 -25 95 4 22 19 28 32 28 67 0 23 -6 44 -12 46 -6 2 -24 15 -40
29 -32 28 -35 31 -80 62 -18 13 -33 27 -33 32 0 14 46 60 59 60 6 0 34 -18 62
-40 30 -23 62 -40 77 -40 31 0 82 54 82 87 0 26 -45 74 -92 99 -19 10 -28 22
-28 39 0 38 34 32 99 -17 87 -67 99 -71 137 -53 32 15 52 56 45 95 -2 16 -41
54 -81 80 -12 8 -33 24 -46 35 -13 11 -39 31 -59 45 -20 14 -45 33 -57 43 -22
18 -41 20 -71 9z"/>
<path d="M6240 6035 c-31 -30 -60 -55 -66 -55 -3 0 -31 -20 -62 -45 -31 -25
-67 -53 -79 -63 -13 -9 -34 -26 -47 -37 -13 -11 -54 -42 -90 -69 -61 -45 -66
-52 -66 -85 0 -28 7 -44 28 -64 38 -37 79 -36 123 4 94 86 125 67 67 -41 -10
-19 -18 -44 -18 -55 0 -12 -7 -30 -15 -41 -21 -27 -18 -48 11 -91 46 -68 87
-79 110 -30 8 17 22 43 29 57 8 14 15 32 15 40 0 9 9 33 20 55 11 22 20 45 20
52 0 10 5 11 19 3 90 -48 251 69 251 181 0 43 -30 117 -59 150 -21 23 -50 59
-85 108 -24 33 -36 41 -61 41 -17 0 -37 -7 -45 -15z m46 -213 c35 -23 36 -82
2 -82 -34 0 -73 62 -51 83 8 9 35 9 49 -1z"/>
<path d="M1377 5608 c-9 -7 -23 -34 -31 -60 -11 -39 -12 -56 -1 -102 7 -30 20
-65 29 -78 16 -22 22 -68 10 -68 -4 0 -12 7 -19 17 -8 10 -32 18 -68 21 -53 4
-57 3 -66 -21 -5 -14 -15 -28 -20 -32 -27 -16 1 -95 33 -95 4 0 19 -9 33 -20
14 -11 32 -20 40 -20 8 0 26 -9 40 -20 14 -11 32 -20 40 -20 8 0 26 -9 40 -20
14 -11 32 -20 40 -20 8 0 26 -9 40 -20 14 -11 32 -20 40 -20 8 0 26 -9 40 -20
14 -11 34 -20 43 -20 10 0 23 -7 30 -16 21 -24 82 -15 96 16 42 88 42 79 1
116 -20 19 -45 34 -54 34 -10 1 -31 12 -48 25 l-30 25 40 0 c39 0 55 4 158 33
57 16 97 59 104 115 4 28 0 41 -15 55 -18 16 -23 17 -58 3 -22 -8 -68 -17
-103 -21 -35 -3 -81 -13 -101 -21 -21 -9 -55 -14 -76 -12 -37 3 -40 5 -50 48
-7 25 -19 59 -28 75 -9 17 -16 35 -16 42 0 6 -11 34 -26 62 -26 54 -52 65 -87
39z"/>
<path d="M4358 5371 c-20 -4 -43 -12 -50 -18 -7 -6 -28 -14 -45 -18 -18 -3
-33 -10 -33 -15 0 -5 -10 -12 -22 -16 -23 -7 -138 -121 -138 -137 0 -5 -9 -20
-20 -34 -11 -14 -20 -34 -20 -43 0 -10 -9 -37 -20 -61 -19 -43 -20 -69 -20
-901 0 -852 0 -858 21 -879 19 -19 29 -20 255 -17 267 3 264 2 264 85 0 39 -3
44 -37 62 -21 11 -55 34 -76 53 l-37 34 2 544 3 545 117 5 c148 6 153 10 153
114 0 105 -1 106 -151 106 l-124 0 0 173 c1 168 1 173 25 200 31 35 47 34 79
-4 22 -25 26 -41 26 -89 0 -92 13 -100 166 -100 l122 0 21 34 c25 40 26 74 5
158 -12 48 -25 73 -57 106 -23 23 -47 42 -54 42 -8 0 -16 7 -19 15 -3 8 -22
18 -42 21 -21 4 -46 13 -58 20 -24 17 -183 26 -236 15z"/>
<path d="M6670 5321 c-19 -10 -49 -21 -67 -25 -17 -4 -37 -13 -43 -21 -6 -7
-27 -16 -48 -20 -20 -4 -44 -12 -52 -20 -8 -7 -31 -15 -51 -19 -21 -4 -42 -13
-48 -20 -6 -8 -25 -16 -42 -20 -16 -3 -50 -17 -74 -32 -53 -31 -57 -55 -20
-114 21 -33 31 -40 58 -40 18 0 48 8 67 19 19 10 50 22 67 25 18 4 36 12 39
18 8 12 50 -60 59 -101 4 -18 18 -38 37 -49 31 -20 31 -20 69 0 57 30 60 36
43 102 -8 32 -22 68 -29 80 -13 20 -12 24 5 39 11 9 22 17 25 17 14 0 45 -37
45 -55 0 -11 15 -49 33 -85 36 -73 55 -82 120 -55 35 15 37 17 37 63 0 30 -7
58 -20 77 -11 17 -20 37 -20 45 0 8 -8 31 -19 50 -10 19 -21 49 -25 67 -4 17
-14 37 -22 44 -8 6 -14 17 -14 24 0 29 -61 33 -110 6z"/>
<path d="M3092 4764 c-17 -12 -22 -25 -22 -62 0 -26 4 -52 8 -58 14 -22 58
-38 117 -44 55 -6 65 -11 110 -56 l50 -49 3 -725 c1 -399 0 -735 -2 -746 -3
-12 -28 -45 -56 -74 -48 -50 -54 -54 -108 -58 -36 -2 -62 -10 -69 -20 -15 -18
-17 -120 -3 -142 8 -13 113 -15 825 -18 l816 -2 23 23 c18 18 26 41 31 83 4
33 13 70 20 84 7 14 16 54 20 90 4 36 13 77 20 91 8 14 17 54 21 90 4 35 13
76 20 91 8 15 14 45 14 67 0 35 -4 43 -32 57 -29 15 -33 15 -62 -2 -17 -9 -42
-30 -56 -45 -45 -49 -147 -163 -171 -192 -13 -16 -41 -46 -61 -67 -21 -21 -38
-41 -38 -43 0 -3 -22 -28 -49 -56 l-49 -51 -281 0 -281 0 -2 904 c-3 873 -4
905 -22 925 -19 21 -26 21 -365 21 -298 0 -350 -2 -369 -16z"/>
<path d="M1527 4738 c-9 -7 -21 -31 -26 -53 -6 -22 -16 -65 -24 -95 l-14 -55
-59 4 c-32 2 -70 9 -84 16 -14 7 -59 17 -100 20 -41 4 -90 14 -109 21 -46 19
-64 18 -95 -7 -22 -17 -26 -28 -26 -74 0 -34 5 -57 15 -65 8 -6 46 -16 85 -21
39 -5 79 -13 90 -19 10 -6 57 -14 102 -19 46 -4 94 -14 107 -21 13 -6 59 -14
102 -17 101 -7 114 2 124 93 4 36 13 81 21 100 8 18 14 66 14 108 l0 75 -37
10 c-49 14 -66 14 -86 -1z"/>
<path d="M6642 4580 c-29 -4 -61 -15 -71 -24 -10 -9 -22 -16 -27 -16 -15 -1
-57 -43 -85 -85 -67 -102 -57 -266 23 -359 62 -72 130 -100 243 -100 66 -1 97
4 115 16 14 8 37 18 53 22 38 9 109 81 138 141 47 97 27 227 -48 319 -69 83
-176 110 -341 86z m182 -172 c37 -19 47 -30 56 -65 34 -120 -41 -186 -195
-170 -77 8 -105 39 -105 115 1 67 16 90 81 121 58 27 109 26 163 -1z"/>
<path d="M1240 4089 c-88 -11 -144 -36 -200 -91 -27 -28 -50 -56 -50 -62 0 -6
-8 -24 -17 -41 -23 -41 -23 -159 0 -200 9 -16 17 -37 17 -45 1 -21 57 -81 109
-116 43 -28 47 -29 170 -28 121 1 141 5 199 38 45 26 98 95 115 151 18 60 23
160 8 169 -5 4 -12 23 -16 44 -7 44 -85 136 -125 147 -14 4 -31 12 -39 18 -18
15 -105 23 -171 16z m163 -207 c26 -24 28 -32 25 -92 l-3 -65 -50 -32 c-41
-27 -59 -33 -105 -33 -39 0 -62 6 -80 20 -14 11 -30 20 -36 20 -16 0 -33 78
-27 120 7 48 49 87 99 93 79 9 147 -3 177 -31z"/>
<path d="M6428 3730 c-21 -13 -38 -70 -38 -128 0 -23 -7 -59 -15 -79 -23 -53
-29 -134 -13 -156 17 -23 109 -35 124 -16 17 22 42 100 50 152 l6 47 48 0 c26
0 67 -7 90 -15 24 -8 77 -19 119 -24 42 -5 89 -14 104 -20 73 -29 117 0 117
77 0 67 -13 80 -85 88 -33 3 -76 12 -96 19 -19 7 -69 17 -110 21 -41 4 -89 13
-106 21 -44 18 -173 27 -195 13z"/>
<path d="M1380 3182 c-34 -17 -35 -19 -33 -73 1 -35 9 -68 22 -91 l21 -35 -23
-21 -23 -22 -21 28 c-12 16 -26 44 -31 63 -5 19 -21 54 -34 79 -29 53 -57 61
-109 32 -29 -16 -34 -25 -37 -61 -2 -29 3 -52 17 -75 12 -18 21 -42 21 -52 0
-11 9 -32 20 -49 11 -16 20 -38 20 -48 0 -10 12 -39 27 -64 l26 -45 49 4 c26
3 56 12 66 20 9 9 33 18 53 22 21 4 42 13 49 21 7 8 22 15 34 15 11 0 35 9 51
20 17 11 39 20 50 20 11 0 34 9 50 20 17 11 39 20 50 20 11 0 41 14 68 30 56
36 61 64 22 123 -29 42 -59 48 -110 21 -16 -8 -53 -23 -81 -33 l-52 -17 -26
51 c-14 29 -26 59 -26 68 0 15 -47 48 -67 47 -4 -1 -24 -9 -43 -18z"/>
<path d="M6253 3108 c-12 -13 -25 -40 -28 -61 -8 -44 8 -68 65 -96 100 -51 99
-48 23 -56 -37 -4 -84 -13 -103 -20 -19 -7 -48 -16 -63 -19 -15 -4 -31 -14
-34 -24 -4 -9 -15 -28 -25 -41 -21 -28 -23 -70 -4 -96 13 -19 16 -19 68 -2 30
9 71 17 90 17 20 0 64 9 99 20 35 12 77 20 94 18 25 -3 30 -8 37 -41 4 -21 15
-48 23 -60 8 -12 15 -28 15 -37 0 -8 9 -32 20 -53 11 -20 20 -43 20 -51 0 -51
75 -51 99 0 8 16 19 39 26 52 9 19 7 36 -12 95 -13 39 -28 76 -33 81 -6 6 -10
20 -10 33 l0 24 28 -20 c15 -10 44 -21 65 -25 34 -4 42 -1 68 27 40 44 38 94
-6 117 -16 8 -33 20 -38 27 -4 7 -23 15 -42 19 -18 3 -36 12 -39 19 -3 8 -21
17 -40 20 -19 4 -37 13 -40 20 -3 8 -21 17 -40 20 -19 4 -37 13 -40 20 -2 7
-18 16 -35 20 -16 3 -35 12 -41 20 -6 8 -24 17 -40 20 -16 3 -34 13 -41 21
-17 21 -63 17 -86 -8z"/>
<path d="M1891 2746 c-21 -25 -58 -101 -64 -132 -3 -17 -16 -47 -27 -67 -18
-31 -25 -35 -40 -27 -10 6 -27 10 -38 10 -29 0 -114 -40 -140 -66 -33 -33 -62
-93 -62 -130 0 -37 36 -125 56 -137 8 -4 14 -14 14 -20 0 -7 8 -20 18 -29 9
-9 32 -37 51 -62 47 -65 69 -63 179 20 48 37 89 71 90 75 2 5 10 9 18 9 7 0
19 9 26 20 7 11 17 20 21 20 5 0 23 11 41 25 17 14 41 34 54 43 13 9 31 25 40
35 9 9 22 17 28 17 15 0 24 23 24 64 0 44 -39 86 -78 86 -25 0 -91 -40 -112
-68 -6 -9 -48 -32 -56 -32 -10 0 7 72 22 94 8 11 14 27 14 36 0 8 9 32 20 53
26 48 25 68 -5 114 -31 44 -78 69 -94 49z m-130 -418 c44 -54 3 -99 -45 -49
-25 26 -33 51 -19 64 13 14 45 6 64 -15z"/>
<path d="M2341 2194 c-26 -22 -31 -33 -31 -71 0 -36 4 -46 20 -50 11 -3 20 -9
20 -13 0 -4 24 -24 54 -45 66 -45 73 -61 45 -92 -30 -31 -43 -29 -93 12 -24
19 -56 38 -73 41 -25 5 -35 1 -62 -28 -48 -51 -43 -78 29 -134 64 -50 79 -84
36 -84 -14 0 -38 11 -54 25 -17 14 -34 25 -40 25 -5 0 -12 7 -15 15 -4 8 -23
21 -43 30 -34 14 -38 14 -64 -5 -33 -23 -51 -66 -40 -95 7 -19 91 -95 104 -95
3 0 14 -7 24 -15 136 -120 171 -129 225 -57 20 26 43 56 51 67 9 11 36 47 60
80 52 70 62 83 114 150 21 28 48 67 61 88 l23 37 -28 33 c-15 17 -39 40 -53
49 -14 10 -35 23 -45 30 -11 7 -27 20 -37 28 -44 38 -56 47 -94 72 -50 34 -56
34 -94 2z"/>
<path d="M5110 1885 c-14 -8 -32 -17 -40 -20 -8 -3 -33 -15 -55 -25 -22 -11
-51 -24 -65 -30 -111 -47 -135 -84 -92 -144 20 -29 32 -36 59 -36 19 0 51 8
71 19 117 58 122 60 122 37 0 -7 9 -25 20 -39 11 -14 20 -34 20 -45 0 -10 9
-31 20 -45 11 -14 20 -30 20 -37 0 -6 9 -28 19 -48 11 -20 24 -48 30 -62 6
-14 15 -33 21 -42 5 -10 14 -26 18 -35 12 -24 55 -33 98 -22 62 18 66 79 13
178 -10 20 -19 41 -19 47 0 6 -6 17 -14 23 -8 7 -17 27 -20 45 -4 19 -13 39
-21 46 -7 6 -17 24 -20 40 -3 16 -12 34 -20 40 -7 6 -16 26 -19 44 -4 19 -13
39 -21 46 -8 7 -15 19 -15 26 0 22 -38 54 -62 54 -13 0 -34 -7 -48 -15z"/>
<path d="M3028 1783 c-15 -16 -32 -48 -38 -73 -7 -24 -18 -53 -26 -64 -8 -11
-14 -28 -14 -38 0 -10 -9 -32 -20 -50 -11 -18 -20 -39 -20 -47 0 -8 -9 -32
-19 -55 -11 -23 -22 -49 -25 -60 -6 -17 -8 -17 -30 -2 -14 8 -43 18 -66 22
-34 6 -45 3 -65 -16 -32 -31 -41 -74 -21 -105 9 -14 24 -25 34 -25 9 0 31 -9
47 -20 17 -11 39 -20 50 -20 11 0 34 -9 50 -20 17 -11 38 -20 49 -20 10 0 33
-9 50 -19 42 -26 125 -37 149 -19 22 17 33 87 18 115 -6 12 -29 25 -55 32 -50
12 -63 34 -42 66 8 12 18 38 21 58 4 20 13 41 21 48 7 6 16 27 20 48 4 20 12
43 19 51 8 8 16 32 20 52 4 21 13 42 21 49 8 6 14 29 14 50 0 36 -3 39 -51 63
-28 15 -54 26 -58 26 -4 0 -19 -12 -33 -27z"/>
<path d="M4520 1671 c-8 -5 -52 -12 -97 -15 -45 -4 -112 -17 -150 -29 -67 -22
-68 -23 -71 -60 -2 -26 3 -46 18 -67 19 -26 27 -30 68 -30 26 0 65 5 87 11 95
25 95 25 95 -15 0 -20 0 -39 0 -43 0 -8 -77 -35 -132 -47 -27 -6 -28 -9 -28
-65 0 -80 9 -86 116 -77 l85 6 -3 -27 c-3 -27 -5 -28 -88 -36 -74 -7 -88 -11
-109 -34 -18 -21 -22 -34 -17 -61 11 -72 54 -100 108 -71 11 6 61 15 112 19
89 9 163 31 179 54 11 15 -2 174 -18 211 -6 17 -15 68 -19 114 -4 45 -14 101
-22 123 -8 22 -14 53 -14 68 0 51 -61 94 -100 71z"/>
<path d="M3691 1622 c-13 -9 -19 -43 -51 -262 -5 -36 -9 -91 -10 -122 l0 -58
-63 0 c-36 0 -70 -5 -79 -12 -20 -16 -29 -67 -19 -104 7 -27 12 -29 87 -42
150 -25 209 -31 280 -32 85 0 97 10 98 81 1 57 -10 69 -66 69 -44 0 -83 32
-73 58 17 43 33 398 18 413 -14 14 -105 22 -122 11z"/>
</g>
</svg>
