<svg width="109" height="118" fill="none" xmlns="http://www.w3.org/2000/svg"><path d="M90.997 32.56c.666 9.312.653 18.59 1.627 27.849.216 1.985-2.688 2.59-2.892.588-.975-9.258-.94-18.57-1.62-27.844-.153-1.99 2.743-2.602 2.893-.588l-.008-.006z" fill="#000"/><path d="M91.38 62.97c-2.541.69-4.832.299-7.348.352-3.453.239-6.866.92-10.165 2.03-6.799 1.909-13.768 2.838-20.672 4.242-6.904 1.405-13.58 2.823-20.386 4.222-6.377 1.305-13.056.386-19.512.549-1.902.041-1.687-3.085.193-3.129 7.028-.167 14.119.721 21.02-1.05 6.558-1.68 13.23-2.722 19.867-4.042 6.345-1.253 12.736-2.17 18.959-3.901a48.183 48.183 0 018.946-1.963c2.885-.24 5.72.34 8.57-.405 1.843-.488 2.39 2.596.553 3.075l-.024.02z" fill="#000"/><path d="M9.986 72.04c.487-4.482 4.534-4.554 7.894-6.041 1.892-.844 3.771-1.406 5.684-2.134 2.762-1.035 5.174-3.195 7.624-4.91 4.863-3.432 8.776-8.37 13.726-11.55 4.8-2.86 9.384-6.115 13.708-9.733 1.46-1.282 3.38 1.101 1.916 2.391a73.023 73.023 0 01-11.016 8.382c-5.218 3.113-8.947 7.54-13.862 11.073-3.236 2.335-6.777 5.61-10.453 7.072-1.946.78-12.019 3.204-12.302 5.637-.233 2.002-3.177 1.797-2.943-.205l.024.017z" fill="#000"/><path d="M58.605 37.697c1.987-1.81 1.607-6.236 2.379-8.745a45.768 45.768 0 013.32-7.99c.22-.343.56-.58.943-.658.384-.078.781.009 1.105.242 2.966 2.14 7.79 4.068 11.083 5.586 4.132 1.895 8.422 3.413 12.563 5.277 1.743.765.802 3.745-.95 2.974-4.672-2.109-9.61-3.728-14.197-6.027-3.248-1.624-7.264-3.07-10.182-5.175l2.047-.416a41.889 41.889 0 00-3.769 11.162c-.436 2.208-.78 4.661-2.46 6.213a1.417 1.417 0 01-1.042.279 1.46 1.46 0 01-.946-.543 1.64 1.64 0 01-.352-1.078c.013-.394.165-.769.425-1.05l.033-.051z" fill="#000"/><path d="M56.998 38.708c.806-1.261 1.894-4.527 1.186-5.984-.81-1.67-2.297.753-2.524 1.814a8.743 8.743 0 00.416 4.741l-2.102.427c-.08-2.013-1.777-5.862-4.216-4.72a1.803 1.803 0 00-.765.573c-.203.259-.338.57-.39.903-.045 1.445 1.49 1.681 2.438 1.759 1.32.107 2.654-.066 3.982.084 1.329.151 1.291 2.496-.17 2.313-2.475-.271-5.754.644-7.589-1.689a3.884 3.884 0 01-.718-1.434 4.03 4.03 0 01-.09-1.622c.081-.541.27-1.057.556-1.513a3.69 3.69 0 011.1-1.128c4.22-3.076 7.871 2.548 8.033 6.59.056 1.175-1.7 1.473-2.096.418a10.877 10.877 0 01-.182-7.375c.723-1.876 2.758-3.613 4.758-2.877 3.418 1.23 1.584 7.819.178 10.022a1.095 1.095 0 01-.7.416 1.059 1.059 0 01-.78-.192 1.182 1.182 0 01-.455-.7 1.245 1.245 0 01.106-.844l.024.018z" fill="#000"/><path d="M55.204 39.9c-.801 4.974-7.787 7.342-12.008 7.464-7.557.214-11.038-11.458-18.533-8.739-1.328.48-2.284-1.647-.953-2.114 4.055-1.478 6.943-.442 10.126 2.548 2.505 2.362 4.758 5.565 8.275 5.97 2.749.305 10.28-1.821 10.863-5.262.251-1.472 2.462-1.328 2.214.158l.016-.025z" fill="#000"/><path d="M53.003 41.656c-3.434 1.435-8.93 4.687-12.136 1.025-1.644-1.868-1.539-4.896-2.442-7.163a28.52 28.52 0 00-4.8-8.51c-1-1.075.693-2.591 1.685-1.523a30.469 30.469 0 015.45 9.761c1.058 2.934 1.02 7.046 5.05 6.61 2.147-.257 4.274-1.524 6.253-2.355 1.323-.547 2.285 1.573.997 2.158l-.057-.003z" fill="#000"/><path d="M53.686 42.855c1.032 3.142 3.33 5.531 4.499 8.609.526 1.388-1.46 2.416-1.997 1.007-1.161-3.071-3.464-5.452-4.497-8.594-.46-1.417 1.55-2.428 1.995-1.022zm-6.602 5.838c.653 2.919 2.251 5.548 3.456 8.234a1.237 1.237 0 01-.178 1.292 1.115 1.115 0 01-.346.273 1.054 1.054 0 01-1.215-.19 1.172 1.172 0 01-.258-.367c-1.296-2.879-2.93-5.673-3.636-8.807-.318-1.491 1.84-1.915 2.17-.441l.007.006zm-6.531 5.244c.85 2.519 1.337 5.343 2.887 7.509.86 1.2-.823 2.738-1.677 1.528-1.692-2.369-2.272-5.273-3.196-8.009-.48-1.406 1.545-2.419 2.03-1.06l-.044.032zm52.847 6.54c2.88 3.894 1.44 9.328-3.28 9.785a213.31 213.31 0 00-28.618 5.009c-4.565 1.124-9.108 2.048-13.66 3.042-4.553.993-9.28 1.053-13.878 2.229-7.104 1.828-15.266 3.157-22.352.57a1.459 1.459 0 01-.498-.308 1.562 1.562 0 01-.35-.487 1.648 1.648 0 01.22-1.728 1.49 1.49 0 01.458-.37 1.406 1.406 0 011.128-.076c6.192 2.259 13.42 1.164 19.672-.37 6.775-1.687 13.698-2.32 20.533-3.876 6.834-1.556 14.084-3.632 21.146-4.557 3.433-.45 6.754-1.096 10.165-1.715 2.104-.375 10.585-.364 7.078-5.115-1.17-1.589 1.066-3.622 2.236-2.033z" fill="#000"/><path d="M10.01 80.069c-.857-2.713-.232-5.215-.025-8.03.168-2.012 3.112-1.806 2.944.205-.168 2.01-.882 4.411-.255 6.478.627 2.068-2.074 3.249-2.664 1.347zm47.47-30.401a2.203 2.203 0 011.638.32c.49.318.85.818 1.013 1.403a3.153 3.153 0 01-.453 1.881 2.858 2.858 0 01-1.44 1.195 2.31 2.31 0 01-1.737.015 2.499 2.499 0 01-1.308-1.215 2.407 2.407 0 01-.094-1.815c.103-.292.261-.56.465-.785.204-.225.45-.403.722-.523.266-.124.566-.136.84-.032.274.103.5.314.632.59.122.281.135.603.037.895-.098.292-.3.532-.561.67-.588.231-.099.004-.115.068.115-.46.033-.052.055-.087.022-.034.162.117.36-.005.197-.123.27-.424.393-.486.123-.063.166.019.199.358l-.195-.141c-.155-.111 0 0 0 0a1.041 1.041 0 01-.828-.182 1.144 1.144 0 01-.303-.326 1.246 1.246 0 01.009-1.304 1.15 1.15 0 01.307-.322 1.07 1.07 0 01.4-.172h-.036zm-8.154 6.092a1.858 1.858 0 011.759.175c.26.173.478.408.637.686.16.28.255.593.28.918a2.696 2.696 0 01-.48 1.78c-.361.51-.888.86-1.478.981-.59.12-1.2.005-1.715-.325a2.563 2.563 0 01-1.068-1.464 2.148 2.148 0 01.034-.895 2.07 2.07 0 01.394-.792c.185-.229.416-.411.677-.533.26-.123.542-.181.827-.172 1.43.047 1.273 2.394-.144 2.344.362.01.2-.183.376-.385l-.048-.035s.24-.003.247.002c.009.006.257-.067.131.019-.126.086-.034-.113.002-.226l.05-.078c.328.174.406.294.272.298-.133.005-.289.082-.336.099a1.092 1.092 0 01-.858-.194 1.227 1.227 0 01-.477-.783 1.28 1.28 0 01.182-.911 1.14 1.14 0 01.736-.508zm-5.942 4.9c-.163-.041-.251.022-.082-.058.082-.038.167-.065.254-.082.26-.062.53-.066.79-.01.31.078.593.245.818.483.225.238.384.538.458.866.095.607 0 1.23-.272 1.773a2.707 2.707 0 01-1.23 1.231 2.45 2.45 0 01-1.547.261 2.529 2.529 0 01-1.404-.736 1.645 1.645 0 01-.157-1.855 5.476 5.476 0 011.258-1.262 1.06 1.06 0 01.78-.21c.276.037.529.182.708.407.18.225.274.513.264.808a1.21 1.21 0 01-.32.785l-.562.49-.23.213c-.148.145-.137.128.033-.052l.04-.602a.728.728 0 01-.202-.335s.404-.037.338-.008c.178-.074.177-.277.311-.357a.09.09 0 00.04-.034.098.098 0 00.015-.052l.634.457a3.3 3.3 0 01-.377.107 1.954 1.954 0 01-1.057-.018 1.145 1.145 0 01-.628-.593 1.259 1.259 0 01-.063-.89 1.18 1.18 0 01.564-.672c.263-.137.566-.161.845-.066l-.02.012zm44.71-19.836c-7.711-4.554-16.035-7.822-24.68-9.69-1.863-.41-.89-3.367.944-2.966 8.898 1.956 17.461 5.35 25.391 10.065 1.654.979-.009 3.565-1.655 2.591z" fill="#000"/><path d="M76.654 42.514h-5.77L68 47.828l2.885 5.315h5.769l2.885-5.315-2.885-5.314z" fill="#FFB784"/></svg>