<svg width="52" height="65" fill="none" xmlns="http://www.w3.org/2000/svg"><path d="M51.25 21.238v-.099c-.099-.295-1.77-8.057-2.85-11.005-.983-2.752-5.012-3.538-6.486-3.735v-.098A5.956 5.956 0 0035.92.307c-2.063 0-3.93 1.081-5.011 2.653a5.413 5.413 0 00-1.67-1.965C28.058.11 26.584-.185 25.11.11l-.688.098c-1.474.295-2.751 1.08-3.537 2.26-.099.196-.197.295-.295.491-1.18-.786-2.653-1.179-4.029-.884l-.688.098c-2.063.393-3.636 1.769-4.323 3.636-1.18-.688-2.654-.983-4.03-.688l-.884.295c-.491.098-.884.295-1.277.491C1.822 6.891.25 12.787.152 14.85c-.295 4.52-.393 14.937 1.965 22.11.786 2.26 1.965 3.832 3.44 4.815.196 1.179.589 3.93.982 6.584.491 3.635 3.145 15.043 3.145 15.141.098.786.687 1.277 1.474 1.277h.196c.786-.098 1.376-.786 1.278-1.67 0-.098-2.654-11.506-3.145-15.142-.197-1.67-.491-3.439-.688-4.815.786.197 1.67.295 2.457.295 1.179 0 2.26-.196 3.046-.393.786-.196 1.277-.982.983-1.769-.197-.786-.983-1.277-1.77-.982-.49.098-3.438.884-5.797-.492 0 0-.098 0-.098-.098-1.081-.688-2.064-1.768-2.653-3.537-2.26-6.977-2.064-17.491-1.867-20.93v-.197l.786 3.636a5.559 5.559 0 005.404 4.323h.394l4.028-.196c-3.046 2.85-2.751 7.566-2.751 7.763.098.786.688 1.375 1.474 1.375h.098a1.589 1.589 0 001.376-1.572s-.197-4.029 2.26-5.798c.295-.196.688-.393 1.18-.687-.394 1.08-.59 2.358-.492 3.734.098.786.688 1.375 1.474 1.375h.098c.786-.098 1.474-.786 1.376-1.572-.197-2.85 1.572-4.618 2.456-5.11 2.752-1.572 6.191-1.965 7.862-2.161 2.85-.197 5.502.59 7.271 2.358.59.59 1.474.59 2.064 0 .59-.59.59-1.474 0-2.064-.786-.786-1.67-1.375-2.555-1.867 1.572.295 2.85.492 3.243.492.786.098 1.572-.492 1.572-1.376.098-.786-.492-1.572-1.376-1.572-2.555-.197-9.925-1.67-10.907-5.307-.295-1.179-.295-2.063 0-2.456.196-.295.59-.197.59-.197 3.046.295 10.907 1.18 11.103 1.18 1.67.098 4.127.884 4.52 1.866.983 2.654 2.555 9.729 2.752 10.515 0 .393.295 3.44-.983 5.208-1.572 2.162-4.225 4.422-6.78 6.682-1.965 1.67-3.734 3.243-5.208 4.815-1.572.393-5.012.983-7.075.491-3.636-.884-4.815-3.34-4.815-3.537-.295-.786-1.18-1.081-1.965-.786-.787.294-1.081 1.179-.787 1.965.099.196 1.67 3.93 6.879 5.208.786.196 1.67.295 2.653.295.884 0 1.769-.099 2.653-.197-.393.885-.59 1.769-.59 2.653.296 4.226 3.44 18.483 3.538 19.072.099.786.688 1.278 1.474 1.278h.197c.786-.099 1.375-.885 1.277-1.67 0-.1-3.243-14.65-3.537-18.778-.197-2.26 3.734-5.7 7.173-8.647 2.653-2.359 5.404-4.717 7.173-7.075 2.162-2.948 1.572-7.272 1.572-7.468zM35.822 3.255c1.572 0 2.948 1.277 3.046 2.85-1.67-.197-4.029-.492-5.896-.688.295-1.278 1.474-2.162 2.85-2.162zM16.169 5.122l.688-.098h.393c.491 0 1.08.196 1.474.491.59.393.982.983 1.08 1.67l1.573 9.237c.197 1.376-.688 2.752-2.162 2.948l-.688.099c-1.375.196-2.751-.688-2.948-2.162L14.007 8.07c-.196-1.376.786-2.653 2.162-2.948zM6.736 17.896L5.36 11.412a2.575 2.575 0 011.965-3.046l.688-.197c.197 0 .393-.098.59-.098.49 0 .982.098 1.375.393.59.393.983.983 1.18 1.67l1.375 6.486c.099.688 0 1.376-.393 1.965-.393.59-.982.983-1.67 1.18l-.688.196c-1.376.197-2.752-.688-3.046-2.064zm23.19-1.965c-.393.688-1.08 1.278-1.867 1.474l-.688.098c-.688.099-1.375 0-1.965-.393-.59-.393-.983-.982-1.081-1.67l-1.67-9.237c-.099-.688 0-1.376.392-1.965.394-.59.983-.983 1.671-1.081l.688-.099c.688-.098 1.376 0 1.965.394.59.393.983.982 1.081 1.67l.098.295c-.59.196-1.08.59-1.474 1.08-.688.787-1.375 2.36-.59 5.11.59 1.868 1.868 3.243 3.44 4.324z" fill="#000"/><path d="M24.654 50h-5.77L16 55l2.885 5h5.769l2.884-5-2.884-5z" fill="#FFB784"/></svg>