<svg width="24" height="24" fill="none" xmlns="http://www.w3.org/2000/svg"><path d="M17.246 0H6.573C2.949 0 0 2.947 0 6.569v10.665c0 3.622 2.949 6.568 6.573 6.568h10.673c3.624 0 6.573-2.946 6.573-6.568V6.569C23.819 2.947 20.87 0 17.246 0zm4.46 17.234a4.464 4.464 0 01-4.46 4.457H6.573c-2.46 0-4.46-2-4.46-4.457V6.569a4.463 4.463 0 014.46-4.457h10.673c2.459 0 4.46 2 4.46 4.457v10.665z" fill="#000" fill-opacity=".5"/><path d="M11.91 5.768a6.142 6.142 0 00-6.138 6.133 6.142 6.142 0 006.137 6.133 6.141 6.141 0 006.138-6.133 6.142 6.142 0 00-6.138-6.133zm0 10.154a4.027 4.027 0 01-4.025-4.02A4.027 4.027 0 0111.91 7.88a4.027 4.027 0 014.025 4.021 4.027 4.027 0 01-4.024 4.021zm6.395-11.944c-.407 0-.807.164-1.095.453a1.556 1.556 0 00-.455 1.095c0 .407.167.807.455 1.096.288.287.688.453 1.095.453.409 0 .807-.166 1.096-.453a1.56 1.56 0 00.454-1.096c0-.408-.165-.808-.454-1.095a1.557 1.557 0 00-1.096-.453z" fill="#000" fill-opacity=".5"/></svg>