<svg width="89" height="89" fill="none" xmlns="http://www.w3.org/2000/svg"><path d="M11.195 48.837c.04 8.309.161 16.615.366 24.918.119 4.95-1.653 11.78 4.05 13.563 5.375 1.673 11.78 1.475 17.354 1.416 5.336-.06 10.771-.525 15.612-2.97 1.703-.852.198-3.416-1.505-2.564-4.554 2.286-9.81 2.534-14.85 2.544-4.257 0-10.464.604-14.444-.99-4.831-1.901-3.316-12.207-3.405-16.78-.126-6.396-.205-12.788-.238-19.177a1.485 1.485 0 10-2.97 0l.03.04z" fill="#000"/><path d="M49.646 84.348c.614-12.408.848-24.823.703-37.244a1.485 1.485 0 10-2.97 0 620.225 620.225 0 01-.703 37.244c-.099 1.91 2.871 1.9 2.97 0z" fill="#000"/><path d="M23.005 29.591c-5.326.267-26.79 2.96-22.423 12.563 4.534 9.98 23.522 7.227 31.828 6.93 6.87-.218 28.978 1.198 28.82-10.256-.13-9.326-14.623-9.9-21.127-9.673-1.911.07-1.921 3.04 0 2.97 5.039-.188 15.84-.118 17.988 5.713 3.138 8.692-22.493 8.197-26.621 8.276-7.86.218-18.375 1.654-25.413-2.594-5.445-3.286-.852-6.633 3.168-8.266a42.026 42.026 0 0113.78-2.732c1.901-.1 1.911-3.07 0-2.97v.04z" fill="#000"/><path d="M22.184 33.927c-2.614.228-14.336.99-11.88 6.356.99 2.198 4.702 2.386 6.742 2.624 5.211.495 10.447.703 15.681.623 5.138 0 14.395 1.277 17.89-3.682 4.286-6.07-7.653-5.99-10.554-6.109-1.91-.079-1.91 2.891 0 2.97.99 0 7.92-.079 7.92 1.673 0 1.12-3.89 1.644-4.296 1.713-4.307.703-8.802.495-13.158.456-4.502.053-9.004-.152-13.483-.614-2.159-.277-4.782-.99-1.416-2.04a31.453 31.453 0 016.514-.99c1.891-.168 1.91-3.138 0-2.97l.04-.01z" fill="#000"/><path d="M23.936 39.867a20.662 20.662 0 01.881-9.603c.99-3.029 3.376-8.217 6.415-9.672 7.405-3.534 7.514 16.197 7.247 20.325-.119 1.9 2.851 1.9 2.97 0a52.776 52.776 0 00-1.98-18.484c-.99-2.97-3.237-5.682-6.643-5.435-4.247.317-7.148 4.723-8.99 8.099a24.048 24.048 0 00-2.91 14.77c.238 1.872 3.218 1.891 2.97 0h.04z" fill="#000"/><path d="M28.668 20.018a13.118 13.118 0 01-3.544-6.217c-.307-1.268-1.05-7.425 1.149-7.772 1.277-.198 3.168 11.316 3.385 12.633.307 1.88 3.168 1.089 2.861-.782-.712-4.347-1.287-10.237-3.544-14.088-1.178-1.98-2.89-1.594-4.475-.159-5.355 4.861-2.257 14.098 2.08 18.484a1.485 1.485 0 002.088-2.1zm8.445-.634a31.606 31.606 0 012.445-7.207 30.76 30.76 0 013.485-5.485c.99-.633 1.07-.99.287-.99-.91-.306-.861.179.148 1.466a5.11 5.11 0 01.1 2.475 10.652 10.652 0 01-1.733 4.098c-1.515 2.574-3.06 5.138-4.584 7.702a1.487 1.487 0 002.564 1.505c2.287-3.841 6.02-8.197 6.713-12.702.306-2.039 0-6.029-2.11-7.137C42.133 1.9 40.4 5.168 39.33 6.702a34.006 34.006 0 00-5.128 11.88c-.425 1.861 2.436 2.653 2.871.782l.04.02zm-6.307 7.059a1.118 1.118 0 000-2.228 1.12 1.12 0 000 2.228zm3.713.119a1.118 1.118 0 000-2.228 1.119 1.119 0 000 2.228zm-2.604 4.781c2.485 0 2.495-3.86 0-3.86s-2.485 3.86 0 3.86z" fill="#000"/><path d="M31.232 29.215a35.286 35.286 0 00-.435 3.524c-.06.99 1.425.99 1.485 0 .06-.99.198-2.088.376-3.138.178-1.05-1.267-1.336-1.426-.386z" fill="#000"/><path d="M30.015 33.72c1.445.485 3.138.197 4.653.395.94.12.93-1.366 0-1.485a18.1 18.1 0 00-2.188-.168 6.564 6.564 0 01-2.07-.208c-.91-.297-1.296 1.129-.395 1.436v.03zM12.284 56.549c11.325 3.712 25.542 2.158 37.026 0 1.87-.356 1.079-3.218-.792-2.871-10.89 2.05-24.75 3.524-35.452 0-1.812-.594-2.594 2.277-.782 2.87zm51.034-45.431c.384-2.517 1-4.993 1.841-7.395l-1.84.485c1.415 1.594 2.97 4.791 5.355 4.85 1.633 0 3.237-1.98 4.87-1.88 1.466.05.922.376.189 1.742a32.28 32.28 0 01-2.376 3.138 1.119 1.119 0 00.406 1.525c1.386.643 3.405 1.218 4.534 2.277 2.07 1.93.119 1.178-1.465 1.109-1.426-.06-3.89-.802-5.257-.287-1.366.515-1.634 1.623-2.099 2.92-.158.446-1.277 4.495-1.643 4.425-.921-.178-1.802-5.633-1.98-6.504a1.139 1.139 0 00-1.07-.812c-.831-.06-5.336-.069-5.256-1.544 0-.871 4.583-2.97 5.346-3.386 1.277-.653.148-2.574-1.129-1.92-3.06 1.574-11.553 6.088-4.554 8.157.99.287 3.455.258 4.247.832 1.465 1.059 1.337 3.96 2.089 5.583.752 1.624 1.723 2.97 3.495 1.723 2.128-1.495 1.445-6.168 3.346-7.257 1.713-.99 5.87.792 7.99.208 6.117-1.703-3.783-6.653-5.495-7.445l.396 1.515c1.069-1.505 7.078-7.92 2.395-8.692-1.98-.347-4.039 1.317-5.86 1.762-2.456.614-3.287-1.772-4.95-3.613a1.128 1.128 0 00-1.862.495 41.432 41.432 0 00-1.84 7.395c-.209 1.406 1.93 2.01 2.177.594z" fill="#000"/><path d="M69.258 19.067A296.513 296.513 0 0185.484 50.52c.564 1.316 2.485.178 1.98-1.129A299.123 299.123 0 0071.238 17.95a1.136 1.136 0 10-1.98 1.118zM50.646 3.544a9.603 9.603 0 013.663 2.188c.99.99 2.604-.564 1.574-1.574a12 12 0 00-4.643-2.762 1.119 1.119 0 00-.594 2.148z" fill="#000"/><path d="M54.21 1.08a13.78 13.78 0 00-3.099 4.85c-.514 1.337 1.644 1.92 2.149.594a11.156 11.156 0 012.524-3.86c.99-.99-.574-2.605-1.574-1.585zm15.741 1.89a1.485 1.485 0 100-2.97 1.485 1.485 0 000 2.97zM55.26 22.68c-2.07-.108-2.159 3.06-1.397 4.327a2.911 2.911 0 004.346.465c1.278-1.098 1.98-3.554.684-4.95-1.396-1.504-3.525-.673-4.713.595-.99 1.049.594 2.623 1.574 1.574.287-.297.921-.99 1.406-.713.485.277 0 1.178-.168 1.485-.168.307-.713.713-1.109.445-.198-.138-.198-.386-.218-.604.01-.171.01-.343 0-.514-.079-.485.456.118-.425.069 1.435.08 1.425-2.148 0-2.228l.02.05zm27.512-12.097l4.95-1.326a1.118 1.118 0 00-.594-2.149l-4.95 1.327a1.119 1.119 0 00.594 2.148zm-.525-4.94A4.95 4.95 0 0183.89 3.95c1.208-.762.09-2.693-1.128-1.93a7.365 7.365 0 00-2.436 2.514 1.112 1.112 0 001.92 1.119v-.01z" fill="#000"/><path d="M33.654 67h-5.77L25 72l2.885 5h5.769l2.884-5-2.884-5z" fill="#FFB784"/></svg>